<svg width="24" height="24" viewBox="0 0 24 24" fill="none" xmlns="http://www.w3.org/2000/svg">
<path fill-rule="evenodd" clip-rule="evenodd" d="M17.7667 17.201C18.0435 17.3833 18.4156 17.3067 18.5978 17.0299C19.0647 16.3209 19.3487 15.1695 19.4839 13.5498C19.531 12.9862 19.7195 12.6106 20.2451 11.8942L20.3369 11.7693C21.328 10.4203 21.6443 9.49982 21.3234 7.83395C20.324 4.05236 16.9256 1.3999 13 1.3999C9.8636 1.3999 7.11935 3.07886 5.61697 5.58702C5.19156 5.90191 4.85234 6.32663 4.64124 6.81928C4.97125 6.4398 5.45761 6.1999 5.99999 6.1999C6.99411 6.1999 7.79999 7.00579 7.79999 7.9999V15.9999C7.79999 16.994 6.99411 17.7999 5.99999 17.7999C5.4576 17.7999 4.97124 17.56 4.64124 17.1805C4.85234 17.6732 5.19155 18.0979 5.61697 18.4128C7.11934 20.9209 9.8636 22.5999 13 22.5999C16.5412 22.5999 19.6808 20.4396 20.9809 17.2096C21.0994 16.915 21.2272 16.4843 21.3119 16.0048C21.4388 15.286 21.4509 14.5658 21.3059 13.8764C21.2376 13.5521 20.9194 13.3445 20.5952 13.4128C20.2709 13.481 20.0633 13.7992 20.1316 14.1235C20.3264 15.0493 20.1463 16.0694 19.8677 16.7615C18.7489 19.5409 16.0473 21.3999 13 21.3999C10.8391 21.3999 8.89454 20.4737 7.54165 18.9966C9.13273 18.9227 10.4 17.6093 10.4 15.9999V7.9999C10.4 6.39053 9.13273 5.07715 7.54165 5.00319C8.89455 3.52611 10.8391 2.5999 13 2.5999C16.3778 2.5999 19.3024 4.8826 20.1542 8.10094C20.3919 9.34223 20.1818 9.95363 19.3698 11.0588L19.2776 11.1843C18.6313 12.0652 18.3583 12.6092 18.2881 13.45C18.1682 14.8863 17.926 15.8682 17.5956 16.3699C17.4134 16.6466 17.49 17.0187 17.7667 17.201ZM17.6993 7.34214C17.5103 7.06996 17.5777 6.6961 17.8499 6.50708C18.1221 6.31807 18.496 6.38549 18.685 6.65766C19.059 7.19624 19.3999 8.08454 19.5472 8.8923C19.6066 9.2183 19.3905 9.53075 19.0645 9.59018C18.7385 9.6496 18.426 9.4335 18.3666 9.1075C18.2484 8.45891 17.9686 7.72983 17.6993 7.34214Z" fill="black" fill-opacity="0.9"/>
</svg>
