<svg width="24" height="24" viewBox="0 0 24 24" fill="none" xmlns="http://www.w3.org/2000/svg">
<path fill-rule="evenodd" clip-rule="evenodd" d="M12 22C6.47715 22 2 17.5228 2 12C2 6.47715 6.47715 2 12 2C17.5228 2 22 6.47715 22 12C22 17.5228 17.5228 22 12 22ZM12 20.8C16.8601 20.8 20.8 16.8601 20.8 12C20.8 7.13989 16.8601 3.2 12 3.2C7.13989 3.2 3.2 7.13989 3.2 12C3.2 16.8601 7.13989 20.8 12 20.8ZM12.9531 16.5L13.9985 15.4375L10.6803 12L13.9985 8.5625L12.9531 7.5L9.2644 11.3038C8.88826 11.6917 8.88826 12.3083 9.2644 12.6962L12.9531 16.5Z" fill="black" fill-opacity="0.9"/>
</svg>
