<svg width="24" height="24" viewBox="0 0 24 24" fill="none" xmlns="http://www.w3.org/2000/svg">
<path fill-rule="evenodd" clip-rule="evenodd" d="M9.99997 4C9.99997 2.89543 10.8954 2 12 2C13.1045 2 14 2.89543 14 4C14 4.11304 13.9906 4.22388 13.9726 4.3318C16.3173 5.14769 18 7.37734 18 10V14C18 15.4693 18.5397 16.9386 19.6191 18.4079C19.7452 18.5796 19.8132 18.787 19.8132 19C19.8132 19.5523 19.3655 20 18.8132 20L13 20V20.2C13 20.7523 12.5523 21.2 12 21.2C11.4477 21.2 11 20.7523 11 20.2V20H5.18668C4.9737 20 4.76628 19.932 4.59464 19.8059C4.14957 19.4789 4.05384 18.8531 4.38081 18.408C5.46024 16.9386 5.99997 15.4693 5.99997 14V10C5.99997 7.37734 7.68268 5.14769 10.0274 4.3318C10.0093 4.22388 9.99997 4.11304 9.99997 4ZM12 18.8L18.4258 18.8C17.3515 17.2356 16.8 15.6304 16.8 14V10C16.8 7.94086 15.4914 6.13088 13.5782 5.46515L12.6223 5.13251L12.789 4.13418C12.7963 4.0905 12.8 4.04574 12.8 4C12.8 3.55817 12.4418 3.2 12 3.2C11.5581 3.2 11.2 3.55817 11.2 4C11.2 4.04574 11.2037 4.0905 11.211 4.13418L11.3777 5.13251L10.4217 5.46515C8.50858 6.13088 7.19997 7.94086 7.19997 10V14C7.19997 15.6303 6.64846 17.2355 5.57419 18.8H12Z" fill="black" fill-opacity="0.9"/>
</svg>
