<svg width="24" height="24" viewBox="0 0 24 24" fill="none" xmlns="http://www.w3.org/2000/svg">
<path fill-rule="evenodd" clip-rule="evenodd" d="M14.6659 14.5001L16.065 13.1011C16.215 12.951 16.2993 12.7476 16.2993 12.5354V9.33122L18.9842 6.6463L17.8528 5.51493L15.1679 8.19985H11.9637C11.7516 8.19985 11.5481 8.28414 11.398 8.43417L5.3321 14.5001H9.5V15.7001H2V14.5001H3.64001C3.66253 14.4743 3.68609 14.4491 3.71068 14.4245L10.5495 7.58564C10.9246 7.21057 11.4333 6.99985 11.9637 6.99985H14.6708L17.1457 4.52498L16.4386 3.81787L16.7922 3.46432C16.9874 3.26906 17.304 3.26906 17.4993 3.46432L21.0348 6.99985C21.2301 7.19511 21.2301 7.5117 21.0348 7.70696L20.6812 8.06051L19.9741 7.3534L17.4993 9.82828V12.5354C17.4993 13.0658 17.2886 13.5745 16.9135 13.9496L16.363 14.5001H18.5V15.7001H12.5V14.5001H14.6659ZM13.5 19.5001H18V20.7001H13.5V19.5001ZM10.5 17.0001H14.5V18.2001H10.5V17.0001ZM6 17.0001H8V18.2001H6V17.0001Z" fill="black" fill-opacity="0.9"/>
</svg>
