<svg width="24" height="24" viewBox="0 0 24 24" fill="none" xmlns="http://www.w3.org/2000/svg">
<path fill-rule="evenodd" clip-rule="evenodd" d="M20.156 3.61731C20.6221 3.55256 21 3.87908 21 4.35625V8.24634L21.1591 8.26727C21.6235 8.32838 22 8.76572 22 9.23709V19.8761C22 20.4294 21.5491 20.8186 21.0052 20.747L3.84092 18.4886C3.37649 18.4275 3 17.9901 3 17.5187V6.87971C3 6.87187 3.00009 6.86407 3.00027 6.85629L3 6.85625C3 6.3834 3.37596 5.94786 3.84403 5.88285L20.156 3.61731ZM7.93102 6.52674L19.8 8.08844V4.87827L7.93102 6.52674ZM4.2 17.3255V7.24615L20.8 9.43037V19.5097L4.2 17.3255Z" fill="black" fill-opacity="0.9"/>
</svg>
