<svg width="24" height="24" viewBox="0 0 24 24" fill="none" xmlns="http://www.w3.org/2000/svg">
<path fill-rule="evenodd" clip-rule="evenodd" d="M3 4C2.44772 4 2 4.44772 2 5V18C2 18.5523 2.44772 19 3 19H14V20.3H9C8.44772 20.3 8 20.7477 8 21.3V21.5H14V21.5041C14 22.0533 14.4457 22.5 14.9954 22.5H23.0046C23.5443 22.5 24 22.0541 24 21.5041V15.9959C24 15.4467 23.5543 15 23.0046 15H22V14.7V5C22 4.44772 21.5523 4 21 4H3ZM20.8 12.1398V5.2H3.2V17.8H14V15.9959C14 15.4459 14.4557 15 14.9954 15H16V14.7C16 12.9327 17.3431 11.5 19 11.5C19.6754 11.5 20.2986 11.738 20.8 12.1398ZM20.8 15V14.7C20.8 13.5787 19.9762 12.7 19 12.7C18.0238 12.7 17.2 13.5787 17.2 14.7V15H20.8ZM22.8 16.2V21.3H15.2V16.2H22.8Z" fill="black" fill-opacity="0.9"/>
</svg>
