<svg width="24" height="24" viewBox="0 0 24 24" fill="none" xmlns="http://www.w3.org/2000/svg">
<path fill-rule="evenodd" clip-rule="evenodd" d="M2 5C2 4.44772 2.44772 4 3 4H21C21.5523 4 22 4.44772 22 5V10H23C23.5523 10 24 10.4477 24 11V21C24 21.5523 23.5523 22 23 22H17C16.4477 22 16 21.5523 16 21V19H3C2.44772 19 2 18.5523 2 18V5ZM20.8 5.2V10H17C16.4477 10 16 10.4477 16 11V17.8H3.2V5.2H20.8ZM9 20.3C8.44772 20.3 8 20.7477 8 21.3V21.5H15V21.3C15 20.7477 14.5523 20.3 14 20.3H9ZM17.2 20.8V11.2H22.8V20.8H17.2Z" fill="black" fill-opacity="0.9"/>
</svg>
