<svg width="24" height="24" viewBox="0 0 24 24" fill="none" xmlns="http://www.w3.org/2000/svg">
<path fill-rule="evenodd" clip-rule="evenodd" d="M14.687 10.5302L12.6 12.6172V2H11.4V12.6172L9.31299 10.5302L8.46447 11.3787L11.2929 14.2071C11.6834 14.5976 12.3166 14.5976 12.7071 14.2071L15.5355 11.3787L14.687 10.5302ZM16 8.2H18.8V20.8H5.2V8.2H8V7H4.99896C4.44725 7 4 7.44892 4 7.99581V21.0042C4 21.5542 4.44892 22 4.99581 22H19.0042C19.5542 22 20 21.5511 20 21.0042V7.99581C20 7.44584 19.5509 7 19.001 7H16V8.2Z" fill="black" fill-opacity="0.9"/>
</svg>
