<svg width="24" height="24" viewBox="0 0 24 24" fill="none" xmlns="http://www.w3.org/2000/svg">
<path fill-rule="evenodd" clip-rule="evenodd" d="M14.252 7.91788C14.252 7.91788 10.9682 7.51127 11.0931 10.1077C11.2187 12.6983 13.687 12.2693 15.6475 14.324C16.9578 15.6974 16.8982 18.4541 16.436 19.6518C15.6482 21.6929 13.5552 21.9992 12.9804 22C11.3194 22.0022 10.0449 21.6078 9.37047 20.127C8.69601 18.6461 9.19991 16.3438 7.95903 15.0149C6.68548 13.651 4.05942 10.8538 5.34554 6.58987C5.88905 4.78797 7.8463 2 12.9804 2C17.3659 2 20.1975 4.94802 19.3609 8.25252C18.4064 12.0216 14.4644 11.3689 14.4644 11.3689L14.6605 10.185C14.6659 10.1859 14.6994 10.1903 14.7569 10.1957C15.3182 10.2481 15.977 10.1922 16.569 9.95467C17.3718 9.63262 17.9272 9.02575 18.1976 7.95802C18.8342 5.44327 16.5881 3.2 12.9804 3.2C9.21763 3.2 7.13923 4.79862 6.49441 6.9364C5.80427 9.22445 6.33556 11.113 7.74932 12.9467C8.06051 13.3503 8.31675 13.6397 8.83611 14.1959C9.63874 15.0554 9.91501 15.9906 10.0972 17.616C10.1068 17.7012 10.1145 17.7724 10.1309 17.9247C10.2351 18.892 10.3079 19.2901 10.4625 19.6296C10.8534 20.4878 11.5301 20.8019 12.9788 20.8C13.2454 20.7996 13.7024 20.7038 14.1104 20.5085C14.6689 20.2414 15.0812 19.8294 15.3165 19.2197C15.7506 18.0948 15.559 15.9697 14.7792 15.1524C14.52 14.8807 14.2357 14.6486 13.9094 14.4347C13.6944 14.2938 13.4641 14.1621 13.1817 14.0156C13.0202 13.9319 12.4641 13.6556 12.4014 13.6237C10.7576 12.7887 9.97912 11.9117 9.89449 10.1653C9.80882 8.38429 10.8282 7.26897 12.3669 6.86612C12.999 6.70062 13.6338 6.66885 14.2076 6.70929C14.291 6.71516 14.3558 6.72157 14.3995 6.72698L14.252 7.91788Z" fill="black" fill-opacity="0.9"/>
</svg>
