<svg width="24" height="24" viewBox="0 0 24 24" fill="none" xmlns="http://www.w3.org/2000/svg">
<path fill-rule="evenodd" clip-rule="evenodd" d="M4.69706 3L3.84853 3.84853L6.39289 6.39289L7.28604 7.28604L9.17157 9.17157L10.0201 10.0201L13.9799 13.9799L14.8284 14.8284L16.714 16.714L17.6071 17.6071L20.5765 20.5765L21.425 19.7279L18.6701 16.9731C20.5075 15.7471 22.0089 14.0294 23 12C20.9721 7.84763 16.8078 5 12 5C10.4317 5 8.93197 5.30299 7.55247 5.85541L4.69706 3ZM8.48629 6.78923L10.1498 8.45272C10.7031 8.16353 11.3324 8 12 8C14.2091 8 16 9.79086 16 12C16 12.6676 15.8365 13.2969 15.5473 13.8502L17.8031 16.106C19.3773 15.1063 20.707 13.7026 21.6479 12C19.6862 8.45013 16.0343 6.2 12 6.2C10.7819 6.2 9.59867 6.40513 8.48629 6.78923ZM14.638 12.9409C14.7429 12.6469 14.8 12.3301 14.8 12C14.8 10.4536 13.5464 9.2 12 9.2C11.6699 9.2 11.3531 9.25712 11.0591 9.36202L14.638 12.9409ZM1 12C1.9911 9.97063 3.49248 8.2529 5.32986 7.02692L6.19693 7.89398C4.62269 8.89375 3.29299 10.2974 2.35213 12C4.31378 15.5499 7.96568 17.8 12 17.8C13.2181 17.8 14.4013 17.5949 15.5137 17.2108L16.4475 18.1446C15.068 18.697 13.5683 19 12 19C7.19221 19 3.02794 16.1524 1 12ZM8 12C8 11.3324 8.16353 10.7031 8.45272 10.1498L9.36202 11.0591C9.25712 11.3531 9.2 11.6699 9.2 12C9.2 13.5464 10.4536 14.8 12 14.8C12.3301 14.8 12.6469 14.7429 12.9409 14.638L13.8502 15.5473C13.2969 15.8365 12.6676 16 12 16C9.79086 16 8 14.2091 8 12Z" fill="black" fill-opacity="0.9"/>
</svg>
