<svg width="24" height="24" viewBox="0 0 24 24" fill="none" xmlns="http://www.w3.org/2000/svg">
<path fill-rule="evenodd" clip-rule="evenodd" d="M11.137 2.20843C11.6136 1.93042 12.3867 1.93063 12.863 2.20843L20.137 6.45165C20.6136 6.72966 21 7.40621 21 7.95232V16.4578C21 17.0085 20.6133 17.6806 20.137 17.9584L12.863 22.2016C12.3864 22.4797 11.6133 22.4795 11.137 22.2016L3.86296 17.9584C3.38636 17.6804 3 17.0039 3 16.4578V7.95232C3 7.40154 3.38672 6.72946 3.86296 6.45165L11.137 2.20843ZM4.2 16.4578V8.39453L11.4 12.5515V20.9658L4.4676 16.9219C4.36122 16.8598 4.2 16.5789 4.2 16.4578ZM12 11.5122L19.2526 7.32495L12.2583 3.24497C12.1556 3.18502 11.8445 3.185 11.7417 3.24497L4.74743 7.32495L12 11.5122ZM19.8 8.39453L12.6 12.5515V20.9658L19.5324 16.9219C19.6403 16.8589 19.8 16.5813 19.8 16.4578V8.39453Z" fill="black" fill-opacity="0.9"/>
</svg>
