<svg width="24" height="24" viewBox="0 0 24 24" fill="none" xmlns="http://www.w3.org/2000/svg">
<path fill-rule="evenodd" clip-rule="evenodd" d="M12 22C14.329 22 16.472 21.2038 18.1717 19.8688L17.3162 19.0133C15.8393 20.1346 13.9974 20.8 12 20.8C7.13989 20.8 3.2 16.8601 3.2 12C3.2 10.0026 3.86544 8.16069 4.98671 6.68377L4.13119 5.82825C2.79617 7.52799 2 9.67102 2 12C2 17.5228 6.47715 22 12 22ZM19.0711 19.0711L18.2225 18.2225L16.2426 16.2426L15.3941 15.3941L8.60589 8.60589L7.75736 7.75736L5.77746 5.77746L4.92893 4.92893L3.84853 3.84853L4.69706 3L5.82825 4.13119C7.52799 2.79617 9.67102 2 12 2C17.5228 2 22 6.47715 22 12C22 14.329 21.2038 16.472 19.8688 18.1717L21.425 19.7279L20.5765 20.5765L19.0711 19.0711ZM19.0133 17.3162C20.1346 15.8393 20.8 13.9974 20.8 12C20.8 7.13989 16.8601 3.2 12 3.2C10.0026 3.2 8.16069 3.86544 6.68377 4.98671L8.69113 6.99408C9.63965 6.36585 10.7771 6 12 6C15.3137 6 18 8.68629 18 12C18 13.2229 17.6341 14.3603 17.0059 15.3089L19.0133 17.3162ZM16.1354 14.4384C16.5577 13.7237 16.8 12.8902 16.8 12C16.8 9.34903 14.651 7.2 12 7.2C11.1098 7.2 10.2763 7.44231 9.56164 7.86458L16.1354 14.4384ZM14.4384 16.1354L15.3089 17.0059C14.3603 17.6341 13.2229 18 12 18C8.68629 18 6 15.3137 6 12C6 10.7771 6.36585 9.63965 6.99408 8.69113L7.86458 9.56164C7.44232 10.2763 7.2 11.1098 7.2 12C7.2 14.651 9.34903 16.8 12 16.8C12.8902 16.8 13.7237 16.5577 14.4384 16.1354Z" fill="black" fill-opacity="0.9"/>
</svg>
