<svg width="24" height="24" viewBox="0 0 24 24" fill="none" xmlns="http://www.w3.org/2000/svg">
<path fill-rule="evenodd" clip-rule="evenodd" d="M13.4156 2.41544C12.639 1.63886 11.3663 1.63366 10.5845 2.41544L2.41557 10.5844C1.63898 11.361 1.63379 12.6337 2.41557 13.4154L10.5845 21.5844C11.3611 22.361 12.6338 22.3661 13.4156 21.5844L21.5845 13.4154C22.3611 12.6389 22.3663 11.3661 21.5845 10.5844L13.4156 2.41544ZM7.84256 11.3999H3.29708L11.4 3.29696V7.84244C9.56061 8.10555 8.10567 9.56049 7.84256 11.3999ZM12.6 7.84244V3.29696L20.703 11.3999H16.1575C15.8944 9.56049 14.4394 8.10555 12.6 7.84244ZM16.1575 12.5999H20.703L12.6 20.7029V16.1574C14.4394 15.8943 15.8944 14.4393 16.1575 12.5999ZM11.4 16.1574V20.7028L3.29708 12.5999H7.84256C8.10567 14.4393 9.56061 15.8943 11.4 16.1574ZM15 11.9999C15 13.6568 13.6569 14.9999 12 14.9999C10.3432 14.9999 9.00003 13.6568 9.00003 11.9999C9.00003 10.3431 10.3432 8.99991 12 8.99991C13.6569 8.99991 15 10.3431 15 11.9999Z" fill="black" fill-opacity="0.9"/>
</svg>
