<svg width="24" height="24" viewBox="0 0 24 24" fill="none" xmlns="http://www.w3.org/2000/svg">
<path fill-rule="evenodd" clip-rule="evenodd" d="M18.8 19.8H2.2V19.3155C2.2 19.0887 2.43702 18.709 2.64037 18.6098L8.30072 15.8476C9.82521 15.1037 10.2066 13.3039 9.11061 12.0048L8.74908 11.5763C8.19575 10.9205 7.7 9.56566 7.7 8.70929V6.99958C7.7 5.4552 8.95631 4.2 10.5 4.2C12.0456 4.2 13.3 5.45491 13.3 7.00021V8.71019C13.3 9.56439 12.8022 10.9243 12.2509 11.5778L11.8893 12.0064C10.7956 13.3029 11.1729 15.1044 12.6995 15.849L18.3598 18.6101C18.5647 18.71 18.8 19.0861 18.8 19.3155V19.8ZM6.5 8.70929C6.5 9.8495 7.09632 11.4783 7.83191 12.3501L8.19345 12.7786C8.78626 13.4813 8.59538 14.3685 7.77445 14.7691L2.1141 17.5313C1.49815 17.8319 1 18.6304 1 19.3155V20.0016C1 20.5558 1.44836 21 2.00143 21H18.9986C19.5491 21 20 20.553 20 20.0016V19.3155C20 19.186 19.9825 19.053 19.9499 18.9202C19.9564 18.9468 19.9624 18.9734 19.9676 19H22.1567C22.6203 19 23 18.6275 23 18.168V17.5962C23 17.021 22.58 16.3597 22.0618 16.1096L17.2952 13.8088C16.601 13.4737 16.4459 12.7325 16.9424 12.1501L17.2468 11.793C17.8639 11.069 18.3684 9.70775 18.3684 8.75849V7.33351C18.3684 5.49415 16.8603 4 15 4C14.46 4 13.9491 4.12626 13.4961 4.35064C12.7632 3.52251 11.6926 3 10.5 3C8.29536 3 6.5 4.79067 6.5 6.99958V8.70929ZM14.1532 5.36931C14.3761 5.86753 14.5 6.41954 14.5 7.00021V8.71019C14.5 9.8493 13.9009 11.4829 13.1681 12.3516L12.8066 12.7801C12.217 13.479 12.4012 14.3684 13.2255 14.7705L18.8859 17.5316C19.0234 17.5986 19.1551 17.6903 19.2767 17.8H21.8V17.5962C21.8 17.4846 21.6463 17.2416 21.5402 17.1903L16.7735 14.8894C15.3728 14.2133 15.0215 12.5536 16.0292 11.3716L16.3336 11.0145C16.7668 10.5063 17.1684 9.42061 17.1684 8.75849V7.33351C17.1684 6.15903 16.1997 5.2 15 5.2C14.6995 5.2 14.4133 5.26035 14.1532 5.36931Z" fill="black" fill-opacity="0.9"/>
</svg>
