<svg width="24" height="24" viewBox="0 0 24 24" fill="none" xmlns="http://www.w3.org/2000/svg">
<path fill-rule="evenodd" clip-rule="evenodd" d="M18.0001 20.0001C18.0001 20.5524 17.5524 21.0001 17.0001 21.0001H7.00009C6.44781 21.0001 6.00009 20.5524 6.00009 20.0001V14.0001H3.41431C3.14909 14.0001 2.89474 13.8947 2.7072 13.7072C2.31668 13.3167 2.31668 12.6835 2.7072 12.293L11.293 3.7072C11.6835 3.31668 12.3167 3.31668 12.7072 3.7072L21.293 12.293C21.4805 12.4805 21.5859 12.7349 21.5859 13.0001C21.5859 13.5524 21.1382 14.0001 20.5859 14.0001H18.0001V20.0001ZM12.0001 4.69715L3.89715 12.8001H7.20009V19.8001H11.0001V17.0001H13.0001V19.8001H16.8001V12.8001H20.103L12.0001 4.69715Z" fill="black" fill-opacity="0.9"/>
</svg>
