<svg width="24" height="24" viewBox="0 0 24 24" fill="none" xmlns="http://www.w3.org/2000/svg">
<path fill-rule="evenodd" clip-rule="evenodd" d="M23.0046 15H22V14.7V5C22 4.44772 21.5523 4 21 4H3C2.44772 4 2 4.44772 2 5V15V16.2V18C2 18.5523 2.44772 19 3 19H8.84459L8.22298 20.84C8.1346 21.1016 8.27503 21.3853 8.53665 21.4737C8.58821 21.4911 8.64226 21.5 8.69668 21.5H14V21.5041C14 22.0533 14.4457 22.5 14.9954 22.5H23.0046C23.5443 22.5 24 22.0541 24 21.5041V15.9959C24 15.4467 23.5543 15 23.0046 15ZM3.2 16.2V17.8H14V16.2H3.2ZM15.2 16.2V21.3H22.8V16.2H22H15.2ZM3.2 15H14.9954H16V14.7C16 12.9327 17.3431 11.5 19 11.5C19.6754 11.5 20.2986 11.738 20.8 12.1398V5.2H3.2V15ZM17.2 15H20.8V14.7C20.8 13.5787 19.9762 12.7 19 12.7C18.0238 12.7 17.2 13.5787 17.2 14.7V15ZM14 19V20.3H9.67203L10.1112 19H14Z" fill="black" fill-opacity="0.9"/>
</svg>
