<svg width="24" height="24" viewBox="0 0 24 24" fill="none" xmlns="http://www.w3.org/2000/svg">
<path fill-rule="evenodd" clip-rule="evenodd" d="M2 12C2 17.5228 6.47715 22 12 22C17.5228 22 22 17.5228 22 12C22 6.47715 17.5228 2 12 2C6.47715 2 2 6.47715 2 12ZM20.8 12C20.8 16.8601 16.8601 20.8 12 20.8C7.13989 20.8 3.2 16.8601 3.2 12C3.2 7.13989 7.13989 3.2 12 3.2C16.8601 3.2 20.8 7.13989 20.8 12ZM12.6 10V17H11.4V10H12.6ZM12 9C12.5523 9 13 8.55228 13 8C13 7.44772 12.5523 7 12 7C11.4477 7 11 7.44772 11 8C11 8.55228 11.4477 9 12 9Z" fill="black" fill-opacity="0.9"/>
</svg>
