<svg width="24" height="24" viewBox="0 0 24 24" fill="none" xmlns="http://www.w3.org/2000/svg">
<path fill-rule="evenodd" clip-rule="evenodd" d="M17.6569 12L16.8084 11.1515L18.9297 9.03019C20.0232 7.93672 20.0232 6.16386 18.9297 5.07039C17.8362 3.97693 16.0634 3.97693 14.9699 5.07039L11.0808 8.95948C9.98733 10.0529 9.98733 11.8258 11.0808 12.9193L10.2323 13.7678C8.67018 12.2057 8.67018 9.67305 10.2323 8.11095L14.1214 4.22187C15.6835 2.65977 18.2161 2.65977 19.7782 4.22187C21.3403 5.78396 21.3403 8.31662 19.7782 9.87872L17.6569 12ZM6.34319 12L7.19171 12.8486L5.07039 14.9699C3.97693 16.0634 3.97693 17.8362 5.07039 18.9297C6.16386 20.0232 7.93672 20.0232 9.03019 18.9297L12.9193 15.0406C14.0127 13.9471 14.0127 12.1743 12.9193 11.0808L13.7678 10.2323C15.3299 11.7944 15.3299 14.327 13.7678 15.8891L9.87872 19.7782C8.31662 21.3403 5.78396 21.3403 4.22187 19.7782C2.65977 18.2161 2.65977 15.6835 4.22187 14.1214L6.34319 12Z" fill="black" fill-opacity="0.9"/>
</svg>
