<svg width="24" height="24" viewBox="0 0 24 24" fill="none" xmlns="http://www.w3.org/2000/svg">
<path fill-rule="evenodd" clip-rule="evenodd" d="M8 6C8 3.79086 9.79086 2 12 2C14.2091 2 16 3.79086 16 6L16 9H18.9991C19.5519 9 20 9.44749 20 9.9985V21.0015C20 21.553 19.5554 22 18.9991 22H5.00087C4.44811 22 4 21.5525 4 21.0015V9.9985C4 9.44704 4.44463 9 5.00087 9H8V6ZM14.8 6V9H9.2L9.2 6C9.2 4.4536 10.4536 3.2 12 3.2C13.5464 3.2 14.8 4.4536 14.8 6ZM5.2 20.8V10.2H18.8V20.8H5.2ZM10.5 14.5C10.5 15.1151 10.8702 15.6437 11.4 15.8752V18H12.6V15.8752C13.1298 15.6437 13.5 15.1151 13.5 14.5C13.5 13.6716 12.8284 13 12 13C11.1716 13 10.5 13.6716 10.5 14.5Z" fill="black" fill-opacity="0.9"/>
</svg>
