<svg width="24" height="24" viewBox="0 0 24 24" fill="none" xmlns="http://www.w3.org/2000/svg">
<path fill-rule="evenodd" clip-rule="evenodd" d="M19.7969 5.04559L14.3249 10.5175L13.4764 9.669L18.9483 4.19707H15.9969V2.99707H19.9969C20.5491 2.99707 20.9969 3.44479 20.9969 3.99707V7.99707H19.7969V5.04559ZM21 16V20C21 20.5522 20.5523 21 20 21H16V19.8H19.8V16H21ZM8 2.99996V4.19996H4.2V7.99996H3V3.99996C3 3.44768 3.44772 2.99996 4 2.99996H8ZM9.67508 13.4824L4.20315 18.9543V16.0029H3.00315V20.0029C3.00315 20.5551 3.45086 21.0029 4.00315 21.0029H8.00315V19.8029H5.05168L10.5236 14.3309L9.67508 13.4824Z" fill="black" fill-opacity="0.9"/>
</svg>
