<svg width="24" height="24" viewBox="0 0 24 24" fill="none" xmlns="http://www.w3.org/2000/svg">
<path fill-rule="evenodd" clip-rule="evenodd" d="M16 18V21C16 21.5523 15.5523 22 15 22H5C4.44772 22 4 21.5523 4 21V7C4 6.44772 4.44772 6 5 6H8V3C8 2.44772 8.44772 2 9 2H19C19.5523 2 20 2.44772 20 3V17C20 17.5523 19.5523 18 19 18H16ZM16 16.8H18.8V3.2H9.2V6H15C15.5523 6 16 6.44772 16 7V16.8ZM14.8 20.8V7.2H5.2V20.8H14.8ZM10 20C9.44772 20 9 19.5523 9 19C9 18.4477 9.44772 18 10 18C10.5523 18 11 18.4477 11 19C11 19.5523 10.5523 20 10 20Z" fill="black" fill-opacity="0.9"/>
</svg>
