<svg width="24" height="24" viewBox="0 0 24 24" fill="none" xmlns="http://www.w3.org/2000/svg">
<path fill-rule="evenodd" clip-rule="evenodd" d="M12 20.8C16.8601 20.8 20.8 16.8601 20.8 12C20.8 7.13989 16.8601 3.2 12 3.2C7.13989 3.2 3.2 7.13989 3.2 12C3.2 16.8601 7.13989 20.8 12 20.8ZM12 22C6.47715 22 2 17.5228 2 12C2 6.47715 6.47715 2 12 2C17.5228 2 22 6.47715 22 12C22 17.5228 17.5228 22 12 22ZM12 7.7C11.282 7.7 10.7 8.28203 10.7 9V12.5C10.7 13.218 11.282 13.8 12 13.8C12.718 13.8 13.3 13.218 13.3 12.5V9C13.3 8.28203 12.718 7.7 12 7.7ZM12.6 16.9603V18.5H11.4V16.9603C9.1984 16.6669 7.5 14.7811 7.5 12.4975V11H8.7V12.4975C8.7 14.3219 10.1774 15.8 12 15.8C13.8227 15.8 15.3 14.3218 15.3 12.4975V11H16.5V12.4975C16.5 14.7806 14.802 16.6669 12.6 16.9603H12.6ZM12 6.5C13.3807 6.5 14.5 7.61929 14.5 9V12.5C14.5 13.8807 13.3807 15 12 15C10.6193 15 9.5 13.8807 9.5 12.5V9C9.5 7.61929 10.6193 6.5 12 6.5Z" fill="black" fill-opacity="0.9"/>
</svg>
