<svg width="24" height="24" viewBox="0 0 24 24" fill="none" xmlns="http://www.w3.org/2000/svg">
<path fill-rule="evenodd" clip-rule="evenodd" d="M8.7 6.5V12.5C8.7 14.3225 10.1775 15.8 12 15.8C13.8225 15.8 15.3 14.3225 15.3 12.5V6.5C15.3 4.67746 13.8225 3.2 12 3.2C10.1775 3.2 8.7 4.67746 8.7 6.5ZM7.5 6.5C7.5 4.01472 9.51472 2 12 2C14.4853 2 16.5 4.01472 16.5 6.5V12.5C16.5 14.9853 14.4853 17 12 17C9.51472 17 7.5 14.9853 7.5 12.5V6.5ZM5.7 11V12.5C5.7 15.9794 8.52061 18.8 12 18.8C15.4794 18.8 18.3 15.9794 18.3 12.5V11H19.5V12.5C19.5 16.4402 16.4616 19.6707 12.6 19.9763V23H11.4V19.9763C7.5384 19.6707 4.5 16.4402 4.5 12.5V11H5.7Z" fill="black" fill-opacity="0.9"/>
</svg>
