<svg width="24" height="24" viewBox="0 0 24 24" fill="none" xmlns="http://www.w3.org/2000/svg">
<path fill-rule="evenodd" clip-rule="evenodd" d="M20.8499 8.47115C20.8499 6.08344 18.7042 4.1499 16.0494 4.1499C13.3946 4.1499 11.2489 6.08344 11.2489 8.47115V15.6596C11.2489 17.2493 9.7522 18.5269 7.90246 18.5269C6.05272 18.5269 4.55597 17.2493 4.55597 15.6596C4.55597 14.3878 5.53924 13.2755 6.94472 12.9362C7.34627 12.8358 7.72211 12.5388 7.86605 12.2037C7.88592 12.1645 7.89829 12.128 7.9045 12.0907C7.90952 12.0606 7.9108 12.0363 7.91061 11.9696C7.91061 11.6569 7.64269 11.4342 7.23153 11.4342L7.06229 11.4326C4.80828 11.7738 3.1499 13.5672 3.1499 15.6596C3.1499 18.0474 5.29557 19.9809 7.95038 19.9809C10.6052 19.9809 12.7509 18.0474 12.7509 15.6596V8.47115C12.7509 6.88145 14.2476 5.6039 16.0973 5.6039C17.9471 5.6039 19.4438 6.88145 19.4438 8.47115C19.4438 9.78143 18.4707 10.9008 17.0512 11.2434C16.6371 11.3354 16.289 11.6134 16.137 11.9682C15.9472 12.3951 16.2244 12.7445 16.7667 12.7445L16.9732 12.7423C19.2359 12.3436 20.8499 10.5733 20.8499 8.47115Z" fill="black" fill-opacity="0.9"/>
</svg>
