<svg width="24" height="24" viewBox="0 0 24 24" fill="none" xmlns="http://www.w3.org/2000/svg">
<path fill-rule="evenodd" clip-rule="evenodd" d="M4 3C4 2.44772 4.44772 2 5 2H19C19.5523 2 20 2.44772 20 3V21C20 21.5523 19.5523 22 19 22H5C4.44772 22 4 21.5523 4 21V3ZM5.2 3.2V20.8H18.8V3.2H5.2ZM14.6934 13.3369C14.7783 13.2907 14.8168 13.2753 14.9094 13.3061L16.6521 13.9606C16.8526 14.0453 16.9837 14.2378 16.9991 14.4688C17.0059 14.5494 16.9715 14.6418 16.9575 14.6794C16.9554 14.6848 16.9538 14.6891 16.9529 14.6921C16.6753 15.4466 15.9581 15.9856 15.1099 15.9856C14.8708 15.9856 14.6472 15.9317 14.5932 15.9163C12.9738 15.5467 11.5318 14.7229 10.3982 13.591C9.26466 12.4591 8.43955 11.0193 8.0694 9.40233C8.06775 9.39076 8.0636 9.37138 8.05812 9.34573C8.03805 9.25186 8 9.0739 8 8.88644C8 8.03947 8.53979 7.32339 9.29551 7.0462C9.29688 7.04574 9.29856 7.04517 9.30052 7.04451C9.33145 7.03405 9.43211 7 9.51913 7C9.75047 7.0077 9.94326 7.1386 10.0281 7.33879L10.6835 9.07894C10.7144 9.16363 10.699 9.20983 10.6527 9.29453C10.4985 9.56402 10.1283 10.2416 9.92012 10.6497C9.86615 10.7498 9.8353 10.8653 9.8353 10.9808C9.8353 11.104 9.87386 11.2272 9.93555 11.3273C10.2671 11.8893 10.6527 12.4206 11.1077 12.8749C11.5626 13.3369 12.0947 13.7219 12.6577 14.053C12.7579 14.1146 12.8736 14.1531 13.0047 14.1531C13.128 14.1531 13.236 14.1223 13.3362 14.0684C13.7372 13.8605 14.4158 13.4909 14.6934 13.3369Z" fill="black" fill-opacity="0.9"/>
</svg>
