<svg width="24" height="24" viewBox="0 0 24 24" fill="none" xmlns="http://www.w3.org/2000/svg">
<path fill-rule="evenodd" clip-rule="evenodd" d="M15 7H17V9H15V7ZM15 11V9H13V7H11V9H9V7H7V9H9V11H7V13H9V15H7V17H9V15H11V17H13V15H15V17H17V15H15V13H17V11H15ZM13 11H15V13H13V11ZM11 11V9H13V11H11ZM11 13H9V11H11V13ZM11 13H13V15H11V13ZM4.2 4.2V19.8H19.8V4.2H4.2ZM4 3H20C20.5523 3 21 3.44772 21 4V20C21 20.5523 20.5523 21 20 21H4C3.44772 21 3 20.5523 3 20V4C3 3.44772 3.44772 3 4 3Z" fill="black" fill-opacity="0.9"/>
</svg>
