<svg width="24" height="24" viewBox="0 0 24 24" fill="none" xmlns="http://www.w3.org/2000/svg">
<path fill-rule="evenodd" clip-rule="evenodd" d="M19.5973 2.80326C19.5227 2.47938 19.2025 2.27484 18.8773 2.34326L7.26731 4.89326C6.75106 5.00837 6.38982 5.47462 6.40731 6.00326V16.4033C6.4103 16.8371 6.10335 17.2113 5.67731 17.2933L4.00731 17.6433C2.99832 17.8987 2.32172 18.846 2.40731 19.8833C2.45311 20.9683 3.32228 21.8375 4.40731 21.8833C4.53357 21.8975 4.66105 21.8975 4.78731 21.8833C4.85731 21.8833 5.90731 21.6433 6.08731 21.5633C6.9984 21.1261 7.58611 20.2136 7.60731 19.2033V6.20326L18.3973 3.83326V13.7433C18.3964 14.1757 18.0912 14.5477 17.6673 14.6333L15.9273 15.0033C14.9343 15.2748 14.2777 16.2177 14.3673 17.2433C14.4178 18.3262 15.2843 19.1928 16.3673 19.2433C16.4969 19.258 16.6277 19.258 16.7573 19.2433C17.1993 19.1557 17.6366 19.0455 18.0673 18.9133C18.9783 18.4884 19.5735 17.5879 19.6073 16.5833V2.93326C19.609 2.88969 19.6056 2.84607 19.5973 2.80326ZM18.4073 15.6433V16.5433C18.3735 17.0622 18.0698 17.5254 17.6073 17.7633C17.4073 17.8333 16.6773 17.9933 16.5173 18.0233H16.3673C15.9193 17.9689 15.5789 17.5944 15.5673 17.1433C15.5321 16.7157 15.7735 16.3134 16.1673 16.1433L17.9073 15.7933C18.0793 15.7629 18.2471 15.7126 18.4073 15.6433ZM6.40731 18.3033V19.2033C6.37702 19.7231 6.0775 20.1895 5.61731 20.4333C5.42731 20.4933 4.69731 20.6533 4.54731 20.6933C4.3047 20.7128 4.06499 20.6299 3.88636 20.4646C3.70773 20.2992 3.60652 20.0667 3.60731 19.8233C3.57051 19.3982 3.80745 18.9966 4.19731 18.8233L5.91731 18.4833C6.08724 18.443 6.25174 18.3826 6.40731 18.3033V18.3033Z" fill="black" fill-opacity="0.9"/>
</svg>
