<svg width="24" height="24" viewBox="0 0 24 24" fill="none" xmlns="http://www.w3.org/2000/svg">
<path fill-rule="evenodd" clip-rule="evenodd" d="M7.5321 4.8351L18.8773 2.34326C19.2025 2.27484 19.5227 2.47938 19.5973 2.80326C19.6056 2.84607 19.609 2.88969 19.6073 2.93326V16.5833C19.6039 16.6844 19.5948 16.7846 19.5803 16.8833L22.425 19.728L21.5765 20.5765L4.84855 3.84861L5.69708 3.00008L7.5321 4.8351ZM17.3894 14.6924L17.6673 14.6333C18.0912 14.5477 18.3964 14.1757 18.3973 13.7433V3.83326L8.66741 5.97041L17.3894 14.6924V14.6924ZM6.40731 7.10442L7.60731 8.30442V19.2033C7.58611 20.2136 6.9984 21.1261 6.08731 21.5633C5.90731 21.6433 4.85731 21.8833 4.78731 21.8833C4.66105 21.8975 4.53357 21.8975 4.40731 21.8833C3.32228 21.8375 2.45311 20.9683 2.40731 19.8833C2.32172 18.846 2.99832 17.8987 4.00731 17.6433L5.67731 17.2933C6.10335 17.2113 6.4103 16.8371 6.40731 16.4033V7.10442V7.10442ZM14.9201 15.6173L15.764 16.4611C15.6206 16.6524 15.5468 16.8935 15.5673 17.1433C15.5789 17.5944 15.9193 17.9689 16.3673 18.0233H16.5173C16.6129 18.0053 16.9121 17.941 17.18 17.8772L18.1671 18.8642C18.1343 18.8812 18.101 18.8975 18.0673 18.9133C17.6366 19.0455 17.1993 19.1557 16.7573 19.2433C16.6277 19.258 16.4969 19.258 16.3673 19.2433C15.2843 19.1928 14.4178 18.3262 14.3673 17.2433C14.3137 16.6296 14.5272 16.0456 14.9201 15.6173V15.6173ZM6.40731 18.3033C6.25174 18.3826 6.08724 18.443 5.91731 18.4833L4.19731 18.8233C3.80745 18.9966 3.57051 19.3982 3.60731 19.8233C3.60652 20.0667 3.70773 20.2992 3.88636 20.4646C4.06499 20.6299 4.3047 20.7128 4.54731 20.6933C4.69731 20.6533 5.42731 20.4933 5.61731 20.4333C6.0775 20.1895 6.37702 19.7231 6.40731 19.2033V18.3033Z" fill="black" fill-opacity="0.9"/>
</svg>
