<svg width="24" height="24" viewBox="0 0 24 24" fill="none" xmlns="http://www.w3.org/2000/svg">
<path fill-rule="evenodd" clip-rule="evenodd" d="M7.00002 5.8C7.71799 5.8 8.30002 5.21797 8.30002 4.5C8.30002 3.78203 7.71799 3.2 7.00002 3.2C6.28205 3.2 5.70002 3.78203 5.70002 4.5C5.70002 5.21797 6.28205 5.8 7.00002 5.8ZM7.00002 7C5.61931 7 4.50002 5.88071 4.50002 4.5C4.50002 3.11929 5.61931 2 7.00002 2C8.38073 2 9.50002 3.11929 9.50002 4.5C9.50002 5.88071 8.38073 7 7.00002 7ZM17 5.8C17.718 5.8 18.3 5.21797 18.3 4.5C18.3 3.78203 17.718 3.2 17 3.2C16.282 3.2 15.7 3.78203 15.7 4.5C15.7 5.21797 16.282 5.8 17 5.8ZM17 7C15.6193 7 14.5 5.88071 14.5 4.5C14.5 3.11929 15.6193 2 17 2C18.3807 2 19.5 3.11929 19.5 4.5C19.5 5.88071 18.3807 7 17 7ZM6.07832 20.8H7.92172L9.06973 10.0852C9.07277 10.0569 9.07429 10.0285 9.07429 10C9.07429 9.55817 8.71612 9.2 8.27429 9.2H5.72575C5.69728 9.2 5.66883 9.20152 5.64053 9.20455C5.20121 9.25162 4.88324 9.64591 4.93031 10.0852L6.07832 20.8ZM5.72575 8H8.27429C9.37886 8 10.2743 8.89543 10.2743 10C10.2743 10.0712 10.2705 10.1423 10.2629 10.2131L9.09575 21.1065C9.04131 21.6147 8.61249 22 8.10144 22H5.8986C5.38755 22 4.95874 21.6147 4.90429 21.1065L3.73713 10.2131C3.61946 9.11478 4.4144 8.12905 5.51269 8.01138C5.58346 8.0038 5.65458 8 5.72575 8ZM17.9217 20.8L19.0697 10.0852C19.0728 10.0569 19.0743 10.0285 19.0743 10C19.0743 9.55817 18.7161 9.2 18.2743 9.2H15.7258C15.6973 9.2 15.6688 9.20152 15.6405 9.20455C15.2012 9.25162 14.8832 9.64591 14.9303 10.0852L16.0783 20.8H17.9217ZM15.7258 8H18.2743C19.3789 8 20.2743 8.89543 20.2743 10C20.2743 10.0712 20.2705 10.1423 20.2629 10.2131L19.0957 21.1065C19.0413 21.6147 18.6125 22 18.1014 22H15.8986C15.3876 22 14.9587 21.6147 14.9043 21.1065L13.7371 10.2131C13.6195 9.11478 14.4144 8.12905 15.5127 8.01138C15.5835 8.0038 15.6546 8 15.7258 8Z" fill="black" fill-opacity="0.9"/>
</svg>
