<svg width="24" height="24" viewBox="0 0 24 24" fill="none" xmlns="http://www.w3.org/2000/svg">
<path fill-rule="evenodd" clip-rule="evenodd" d="M8.90236 9.21455L8.8952 6.70718L11.0907 7.97017C11.6528 8.29935 12.3503 8.29882 12.9119 7.96857L15.1047 6.70717L15.0976 9.21455C15.0976 9.86233 15.4477 10.4631 16.0117 10.7797L18.1989 12.0196L16.0013 13.2656C15.4451 13.5926 15.0976 14.1889 15.0976 14.8247L15.1048 17.3363L12.916 16.0772C12.3454 15.7505 11.6496 15.7505 11.088 16.0807L8.8952 17.3421L8.90236 14.8347C8.90236 14.1869 8.5522 13.5862 7.9882 13.2696L5.80103 12.0296L7.99866 10.7837C8.5566 10.4556 8.90236 9.85825 8.90236 9.21455ZM19.7502 6.11969L16.016 5.12916L13.283 2.42642C12.5731 1.7244 11.4269 1.7244 10.717 2.42642L7.98395 5.12916L4.24831 6.12006C3.281 6.37415 2.7027 7.36448 2.96159 8.32831L3.96287 12.0294L2.96198 15.7195C2.7027 16.6848 3.281 17.6751 4.2497 17.9296L7.98395 18.9201L10.717 21.6229C11.4269 22.3249 12.5731 22.3249 13.283 21.6229L16.0432 18.9029L19.7516 17.9192C20.719 17.6651 21.2972 16.6748 21.0384 15.7109L20.0371 12.0196L21.038 8.32973C21.2972 7.36448 20.719 6.37415 19.7502 6.11969ZM7.69446 6.44745L7.70236 9.21626C7.70236 9.42933 7.58511 9.63316 7.39383 9.74722L4.96162 11.1261L4.12023 8.01598C4.03461 7.69719 4.22794 7.36612 4.55458 7.28031L7.69446 6.44745ZM4.96117 12.9329L7.39862 14.3148C7.58548 14.4197 7.70211 14.6195 7.70236 14.834L7.69446 17.6018L4.55597 16.7693C4.22794 16.6832 4.03461 16.3521 4.12051 16.0322L4.96117 12.9329ZM9.27424 18.5084L11.6913 17.118C11.8842 17.0046 12.1202 17.0045 12.3194 17.1184L14.7346 18.5077L12.4399 20.7689C12.1968 21.0093 11.8031 21.0093 11.5608 20.7696L9.27424 18.5084ZM16.3055 17.5918L16.2976 14.823C16.2976 14.6192 16.4155 14.4157 16.6061 14.3021L19.0388 12.9229L19.8798 16.0237C19.9653 16.3421 19.772 16.6731 19.4454 16.7589L16.3055 17.5918ZM19.0388 11.1164L16.6013 9.73448C16.4145 9.6296 16.2978 9.42974 16.2976 9.21526L16.3055 6.44745L19.444 7.27995C19.772 7.36612 19.9653 7.69719 19.8794 8.01702L19.0388 11.1164ZM12.3086 6.93127C12.1166 7.04416 11.8834 7.04416 11.6913 6.93127L9.27424 5.54085L11.5608 3.27966C11.8031 3.03998 12.1968 3.03998 12.4392 3.27966L14.7257 5.54085L12.3086 6.93127Z" fill="black" fill-opacity="0.9"/>
</svg>
