<svg width="24" height="24" viewBox="0 0 24 24" fill="none" xmlns="http://www.w3.org/2000/svg">
<path fill-rule="evenodd" clip-rule="evenodd" d="M7 2H4V17.8093V19.0093V22H18C19.1046 22 20 21.1046 20 20V17.0093V15.2V4C20 2.89543 19.1046 2 18 2H8.2H7ZM7 3.2H5.2V17.8093H7V3.2ZM8.2 17.8093H18C18.4418 17.8093 18.8 17.4511 18.8 17.0093V15.2V4C18.8 3.55817 18.4418 3.2 18 3.2H8.2V17.8093ZM5.2 20.8V19.0093H18C18.2844 19.0093 18.555 18.9499 18.8 18.8429V20C18.8 20.4418 18.4418 20.8 18 20.8H5.2Z" fill="black" fill-opacity="0.9"/>
</svg>
