<svg width="24" height="24" viewBox="0 0 24 24" fill="none" xmlns="http://www.w3.org/2000/svg">
<path fill-rule="evenodd" clip-rule="evenodd" d="M7 5H9C9.55228 5 10 5.41787 10 5.93333V18.0667C10 18.5821 9.55228 19 9 19H7C6.44772 19 6 18.5821 6 18.0667V5.93333C6 5.41787 6.44772 5 7 5ZM7.2 17.8H8.8V6.2H7.2V17.8ZM15 5H17C17.5523 5 18 5.41787 18 5.93333V18.0667C18 18.5821 17.5523 19 17 19H15C14.4477 19 14 18.5821 14 18.0667V5.93333C14 5.41787 14.4477 5 15 5ZM15.2 17.8H16.8V6.2H15.2V17.8Z" fill="black" fill-opacity="0.9"/>
</svg>
