<svg width="24" height="24" viewBox="0 0 24 24" fill="none" xmlns="http://www.w3.org/2000/svg">
<path fill-rule="evenodd" clip-rule="evenodd" d="M6.00002 4.19995C6.00002 3.64767 6.44774 3.19995 7.00002 3.19995H17C17.5523 3.19995 18 3.64767 18 4.19995V10.0619L20.2927 11.3428C20.4824 11.4489 20.6 11.6492 20.6 11.8666V20.2C20.6 20.5313 20.3314 20.8 20 20.8H18.2955C17.4418 20.8 16.6902 19.9192 16.2085 18.8H7.79157C7.30982 19.9192 6.55828 20.8 5.70457 20.8H4.00002C3.66865 20.8 3.40002 20.5313 3.40002 20.2V11.8666C3.40002 11.6492 3.5176 11.4489 3.70737 11.3428L6.00002 10.0619V8.18843V7.19995V4.19995ZM7.20002 8.65901V12.2649L7.38721 12.2622C7.81817 12.2562 8.10573 12.2547 8.41218 12.2592C10.1655 12.285 10.7364 12.3749 10.7364 13.2C10.7364 14.1101 10.498 15.0393 9.93164 15.5638C9.70496 15.861 9.38564 16.1075 8.99552 16.3217C8.78366 16.438 8.56235 16.5384 8.33428 16.6273C8.31008 16.9445 8.25855 17.2729 8.18303 17.6H15.817C15.7415 17.2729 15.69 16.9445 15.6658 16.6273C15.4377 16.5384 15.2164 16.438 15.0045 16.3217C14.6144 16.1075 14.2951 15.861 14.0684 15.5638C13.502 15.0393 13.2637 14.1101 13.2637 13.2C13.2637 12.3749 13.8346 12.285 15.5879 12.2592C15.8943 12.2547 16.1819 12.2562 16.6128 12.2622L16.8 12.2649V8.54046C15.3314 9.08194 13.6371 9.43369 11.833 9.43369C10.1641 9.43369 8.5892 9.13272 7.20002 8.65901ZM16.8 7.53454C15.3517 8.03902 13.6515 8.36737 11.833 8.36737C10.1525 8.36737 8.57302 8.08698 7.20002 7.64632V4.39995H16.8V7.53454ZM4.60002 12.2187V19.6H5.70457C6.25599 19.6 7.15775 17.5609 7.15003 16.2034C7.14863 15.9572 7.29778 15.7351 7.52621 15.6433C7.52875 15.6422 7.5471 15.6358 7.57462 15.6262C7.64852 15.6004 7.78851 15.5514 7.86615 15.5217C8.06061 15.4473 8.24689 15.3637 8.41796 15.2698C8.674 15.1292 8.86826 14.9793 9.04243 14.7639C9.31164 14.5094 9.47113 14.0319 9.52011 13.5326L9.5015 13.5296C9.24104 13.4886 8.86602 13.466 8.39452 13.459C8.10246 13.4547 7.82432 13.4562 7.40407 13.4621C7.22875 13.4647 7.22865 13.4647 7.06129 13.4666L7.06105 13.4666H7.061H7.06099C6.1212 13.4553 5.82123 12.7247 5.78175 11.5584L4.60002 12.2187ZM19.4 19.6V12.2187L18.2183 11.5584C18.1788 12.7247 17.8788 13.4553 16.9391 13.4666H16.939H16.939C16.7714 13.4647 16.7714 13.4647 16.596 13.4621C16.1757 13.4562 15.8976 13.4547 15.6055 13.459C15.134 13.466 14.759 13.4886 14.4986 13.5296L14.4799 13.5326C14.5289 14.0319 14.6884 14.5094 14.9576 14.7639C15.1318 14.9793 15.326 15.1292 15.5821 15.2698C15.7532 15.3637 15.9394 15.4473 16.1339 15.5217C16.2115 15.5514 16.3515 15.6004 16.4254 15.6262C16.453 15.6358 16.4713 15.6422 16.4738 15.6433C16.7023 15.7351 16.8514 15.9572 16.85 16.2034C16.8423 17.5609 17.7441 19.6 18.2955 19.6H19.4Z" fill="black" fill-opacity="0.9"/>
</svg>
