<svg width="24" height="24" viewBox="0 0 24 24" fill="none" xmlns="http://www.w3.org/2000/svg">
<path fill-rule="evenodd" clip-rule="evenodd" d="M21.7491 10.0581C21.7578 10.0833 21.7649 10.1093 21.7703 10.1362C21.8792 10.6763 21.9427 11.22 21.9612 11.7634C21.9725 12.0946 21.7131 12.3722 21.3819 12.3834C21.0507 12.3947 20.7731 12.1353 20.7619 11.8041C20.7465 11.3515 20.6955 10.8984 20.6087 10.4476C20.6007 10.4239 20.5941 10.3995 20.589 10.3743C19.6761 5.84634 15.3755 2.8348 10.8259 3.50861C10.4981 3.55716 10.193 3.33078 10.1445 3.00299C10.096 2.67519 10.3223 2.3701 10.6501 2.32156C15.804 1.55825 20.6759 4.94745 21.7491 10.0581ZM12.2378 17.9112C12.1247 18.2226 11.7805 18.3834 11.469 18.2702C11.1576 18.157 10.9968 17.8128 11.11 17.5014C11.7212 15.8194 11.8644 14.0003 11.5027 12.2065C11.4372 11.8816 11.6474 11.5652 11.9722 11.4997C12.2971 11.4342 12.6135 11.6445 12.679 11.9693C13.0846 13.9807 12.9237 16.0236 12.2378 17.9112ZM10.1454 21.4431C9.92671 21.692 9.5476 21.7165 9.29866 21.4978C9.04972 21.2791 9.02522 20.9 9.24394 20.651C9.58135 20.267 9.88861 19.8572 10.1628 19.4257C10.3405 19.146 10.7113 19.0633 10.991 19.241C11.2707 19.4187 11.3534 19.7895 11.1756 20.0692C10.8682 20.553 10.5237 21.0125 10.1454 21.4431ZM13.9739 18.1941C14.2927 18.2844 14.6244 18.0992 14.7147 17.7804C15.2881 15.7561 15.3763 13.6185 14.9514 11.5112C14.684 10.1701 13.5234 9.20323 12.1724 9.16542C11.8411 9.15614 11.5651 9.41715 11.5558 9.74839C11.5465 10.0796 11.8076 10.3557 12.1388 10.3649C12.9335 10.3872 13.6172 10.9568 13.7748 11.7471C14.162 13.6674 14.0818 15.6116 13.5601 17.4533C13.4698 17.7722 13.655 18.1038 13.9739 18.1941ZM12.0457 21.8511C12.3192 22.0383 12.6926 21.9683 12.8797 21.6948C13.3061 21.0718 13.6793 20.4138 13.995 19.7282C14.1337 19.4272 14.002 19.0709 13.701 18.9323C13.4001 18.7936 13.0437 18.9253 12.9051 19.2262C12.6176 19.8505 12.2777 20.4497 11.8894 21.0171C11.7023 21.2906 11.7723 21.664 12.0457 21.8511ZM9.98601 10.0567C10.2161 9.81821 10.5959 9.8114 10.8344 10.0415C11.0729 10.2716 11.0797 10.6514 10.8496 10.8899C10.4583 11.2955 10.2858 11.8661 10.3988 12.4265C10.7532 14.1517 10.5747 15.9075 9.91003 17.5013C9.78248 17.8071 9.43115 17.9516 9.12531 17.8241C8.81947 17.6965 8.67493 17.3452 8.80248 17.0394C9.37523 15.666 9.52885 14.1551 9.22296 12.6659C9.03072 11.7127 9.32375 10.7431 9.98601 10.0567ZM8.84227 18.3365C8.57133 18.1457 8.19703 18.2107 8.00625 18.4816C7.70852 18.9044 7.36817 19.2958 6.99071 19.6489C6.74873 19.8753 6.73609 20.255 6.96248 20.497C7.18886 20.739 7.56855 20.7516 7.81053 20.5252C8.24806 20.1159 8.64245 19.6624 8.9874 19.1725C9.17819 18.9016 9.11321 18.5273 8.84227 18.3365ZM8.83979 3.38195C8.70443 3.07948 8.3495 2.94403 8.04704 3.07939C3.86766 4.94986 1.49445 9.4924 2.41129 14.0396C2.41673 14.0666 2.4239 14.0927 2.43265 14.118C2.45686 14.2332 2.48287 14.3471 2.5107 14.4597C2.59022 14.7814 2.91547 14.9777 3.23716 14.8982C3.55884 14.8186 3.75515 14.4934 3.67563 14.1717C3.64561 14.0503 3.61794 13.9268 3.59259 13.8013C3.58751 13.7762 3.58092 13.7517 3.57295 13.728C2.80822 9.75858 4.89005 5.80699 8.53724 4.1747C8.8397 4.03934 8.97516 3.68441 8.83979 3.38195ZM15.9543 21.0063C15.8092 21.3042 15.4501 21.428 15.1522 21.2829C14.8543 21.1378 14.7304 20.7786 14.8755 20.4807C16.2556 17.6479 16.6834 14.444 16.0475 11.2901C15.6071 9.10275 13.4772 7.68731 11.2902 8.1283C9.1031 8.56933 7.68776 10.6995 8.12842 12.8851C8.60787 15.2327 7.73331 17.615 5.91091 19.1077C5.65455 19.3176 5.27652 19.28 5.06654 19.0237C4.85657 18.7673 4.89417 18.3893 5.15052 18.1793C6.63198 16.9659 7.34204 15.0317 6.95239 13.1238C6.38044 10.2871 8.21624 7.52402 11.053 6.95197C13.8898 6.37997 16.6526 8.21604 17.2238 11.053C17.9122 14.4672 17.4487 17.9388 15.9543 21.0063ZM19.6883 11.7316C19.7332 12.0599 19.5034 12.3624 19.175 12.4073C18.8467 12.4521 18.5442 12.2223 18.4994 11.894C18.4509 11.5394 18.3911 11.1853 18.32 10.8323C17.6644 7.5863 14.6291 5.39377 11.3618 5.7738C11.0327 5.81209 10.7348 5.5763 10.6965 5.24715C10.6583 4.91799 10.8941 4.62013 11.2232 4.58184C15.109 4.12985 18.7168 6.73596 19.4963 10.5949C19.5725 10.9729 19.6365 11.352 19.6883 11.7316ZM19.2499 18.7741C19.1645 19.0943 18.8358 19.2847 18.5156 19.1993C18.1954 19.1139 18.005 18.7852 18.0904 18.465C18.5082 16.8979 18.697 15.2762 18.6459 13.6431C18.6356 13.3119 18.8957 13.035 19.2269 13.0247C19.5581 13.0143 19.835 13.2744 19.8454 13.6056C19.9001 15.3561 19.6977 17.0945 19.2499 18.7741ZM9.56448 5.57754C9.41879 5.27991 9.05942 5.15674 8.76179 5.30242C5.70116 6.80052 3.99878 10.194 4.68184 13.5817C4.89483 14.6232 4.51738 15.6787 3.72008 16.3543C3.46727 16.5685 3.43598 16.9471 3.6502 17.1999C3.86442 17.4528 4.24303 17.484 4.49584 17.2698C5.62399 16.3139 6.1593 14.8169 5.85784 13.3429C5.2836 10.4949 6.71585 7.63989 9.28935 6.38023C9.58698 6.23455 9.71016 5.87517 9.56448 5.57754Z" fill="black" fill-opacity="0.9"/>
</svg>
