<svg width="24" height="24" viewBox="0 0 24 24" fill="none" xmlns="http://www.w3.org/2000/svg">
<path fill-rule="evenodd" clip-rule="evenodd" d="M6 3H18C18.5523 3 19 3.44772 19 4V11.5656V20C19 20.5523 18.5523 21 18 21H6C5.44772 21 5 20.5523 5 20V4C5 3.44772 5.44772 3 6 3ZM17.8 11.5605L12.4544 16.3604L9.57573 14.0369L9 14.6024L11.7097 17.6601C12.1098 18.1115 12.8109 18.1226 13.225 17.6839L17.8 12.8369V19.8H6.2V4.2H17.8V11.5605ZM7.5 6H13.5V7.2H7.5V6ZM13.5 9H7.5V10.2H13.5V9Z" fill="black" fill-opacity="0.9"/>
</svg>
