<svg width="24" height="24" viewBox="0 0 24 24" fill="none" xmlns="http://www.w3.org/2000/svg">
<path fill-rule="evenodd" clip-rule="evenodd" d="M15.4892 3.4621C16.1013 4.36389 16.2657 5.3153 16.2657 7.31542C16.2657 7.86117 16.423 8.14332 16.6821 8.29271C16.8323 8.37936 16.9941 8.40924 17.0871 8.40771C17.4971 8.41443 18.0502 8.4874 18.6173 8.69211C19.3215 8.94633 19.8617 9.35512 20.1363 9.967C21.1164 12.151 20.6232 17.4545 18.3212 19.3494C17.6305 19.9182 16.243 20.4392 15.1709 20.527C14.5031 20.5816 11.0842 20.5743 4.97543 20.5353C4.12447 20.5303 3.4353 19.8469 3.4353 19.0008V11.7203C3.4353 10.8705 4.13217 10.1857 4.98702 10.1857H6.86168C7.32861 10.1857 7.76528 10.1419 8.28623 10.0272C8.65381 9.94629 8.95919 9.80083 9.52031 9.47182C10.1492 9.10311 10.5198 8.68465 10.798 7.94906C10.9552 7.5325 11.0087 7.12385 11.0658 5.91471C11.0734 5.7546 11.0753 5.70422 11.0882 5.34078C11.1467 3.69249 11.3215 3.10521 12.2343 2.68129C13.4543 2.11466 14.9117 2.61127 15.4892 3.4621ZM14.4963 4.13608C14.2084 3.71187 13.3596 3.48177 12.7397 3.76966C12.3822 3.93569 12.3347 4.05257 12.2875 5.38331C12.2741 5.76038 12.2722 5.80898 12.2645 5.97141C12.2015 7.30418 12.1359 7.80276 11.9204 8.37354C11.5509 9.35056 11.0068 9.99131 10.1273 10.507C9.44233 10.9086 9.04757 11.0883 8.54415 11.1992C7.95482 11.3289 7.43208 11.3857 6.86168 11.3857H4.98702C4.78989 11.3857 4.6353 11.5383 4.6353 11.7203V19.0008C4.6353 19.1828 4.78745 19.3342 4.98308 19.3354C11.5678 19.3774 14.5085 19.3771 15.073 19.331C15.9086 19.2626 17.0643 18.83 17.5586 18.4229C19.2167 17.058 19.9395 12.4593 19.0415 10.4583C18.9242 10.1971 18.665 9.98514 18.2098 9.82082C17.8297 9.6836 17.42 9.61333 17.1068 9.60755C16.7769 9.61295 16.4042 9.51771 16.0826 9.33226C15.3885 8.932 15.0657 8.22329 15.0657 7.31542C15.0657 5.47844 14.9271 4.77069 14.4963 4.13608ZM10.4606 13.603L12.7635 15.5946L17.5394 11L18 11.4848L13.433 16.6688C13.0816 17.0678 12.4568 17.058 12.1179 16.6484L10 14.0878L10.4606 13.603Z" fill="black" fill-opacity="0.9"/>
</svg>
