<svg width="24" height="24" viewBox="0 0 24 24" fill="none" xmlns="http://www.w3.org/2000/svg">
<path fill-rule="evenodd" clip-rule="evenodd" d="M17.4999 2.6001C17.1409 2.6001 16.8499 2.89111 16.8499 3.2501V4.6001H15.4999C15.1409 4.6001 14.8499 4.89111 14.8499 5.2501C14.8499 5.60908 15.1409 5.9001 15.4999 5.9001H16.8499V7.2501C16.8499 7.60908 17.1409 7.9001 17.4999 7.9001C17.8589 7.9001 18.1499 7.60908 18.1499 7.2501V5.9001H19.4999C19.8589 5.9001 20.1499 5.60908 20.1499 5.2501C20.1499 4.89111 19.8589 4.6001 19.4999 4.6001H18.1499V3.2501C18.1499 2.89111 17.8589 2.6001 17.4999 2.6001ZM19.8862 8.07699C20.2303 7.97476 20.5921 8.17085 20.6944 8.51497C21.6474 11.723 20.6527 15.3983 18.0585 17.9924C14.3435 21.7074 8.5865 22.0104 5.19704 18.621C1.80758 15.2315 2.11058 9.4745 5.82558 5.7595C7.80747 3.77761 10.4332 2.71162 13.0421 2.7722C13.2695 2.77748 13.4959 2.79137 13.7207 2.81385C14.0779 2.84958 14.3385 3.16812 14.3028 3.52532C14.2671 3.88252 13.9485 4.14313 13.5913 4.1074C13.3996 4.08822 13.2063 4.07636 13.0119 4.07185C10.7603 4.01957 8.477 4.94655 6.74482 6.67874C3.51717 9.90639 3.25735 14.8428 6.11628 17.7017C8.9752 20.5607 13.9116 20.3009 17.1393 17.0732C19.2716 14.9409 20.1593 11.9911 19.5722 9.36245L9.55638 15.1476L9.4908 15.1857C9.40982 15.2262 9.31865 15.2501 9.22201 15.2501C8.99769 15.2501 8.80268 15.1265 8.70033 14.9439L8.66133 14.8583L7.02848 11.2704C7.01084 11.2314 6.99991 11.1871 6.99991 11.1441C6.99991 10.9789 7.13381 10.845 7.29876 10.845C7.36633 10.845 7.42769 10.8672 7.47787 10.9045L9.40435 12.278C9.54471 12.37 9.71338 12.4243 9.89423 12.4243C10.0018 12.4243 10.1049 12.4044 10.2005 12.3693C10.2005 12.3693 19.5252 8.22353 19.7859 8.11147C19.7997 8.10554 19.8131 8.10109 19.8262 8.098C19.8456 8.09011 19.8656 8.08309 19.8862 8.07699Z" fill="black" fill-opacity="0.9"/>
</svg>
