<svg width="24" height="24" viewBox="0 0 24 24" fill="none" xmlns="http://www.w3.org/2000/svg">
<path fill-rule="evenodd" clip-rule="evenodd" d="M4 5.5L12 2.5L20 5.5V11.2538C20 16.1001 16.7017 20.3246 12 21.5C7.29835 20.3246 4 16.1001 4 11.2538V5.5ZM5.2 6.43693V11.2538C5.2 15.4488 7.98811 19.1181 12 20.2581C16.0119 19.1181 18.8 15.4488 18.8 11.2538V10.3269L10.3289 14.9125L10.2692 14.945C10.1954 14.9796 10.1123 15 10.0243 15C9.81995 15 9.6423 14.8944 9.54906 14.7385L9.51353 14.6655L8.02603 11.6023C8.00996 11.569 8 11.5312 8 11.4944C8 11.3534 8.12198 11.2391 8.27225 11.2391C8.3338 11.2391 8.3897 11.258 8.43541 11.2899L10.1904 12.4625C10.3183 12.5411 10.4719 12.5874 10.6367 12.5874C10.7347 12.5874 10.8286 12.5704 10.9157 12.5405C10.9157 12.5405 16.602 10.1712 18.8 9.25712V6.43693L12 3.73693L5.2 6.43693Z" fill="black" fill-opacity="0.9"/>
</svg>
