<svg width="24" height="24" viewBox="0 0 24 24" fill="none" xmlns="http://www.w3.org/2000/svg">
<path fill-rule="evenodd" clip-rule="evenodd" d="M17.8131 4.5699C17.7147 4.5699 17.6178 4.5449 17.5373 4.49878C15.6315 3.5161 13.9871 3.0999 12.0131 3.0999C10.0411 3.0999 8.17898 3.5698 6.49074 4.49783C6.20342 4.65347 5.84406 4.54712 5.67519 4.25753C5.51871 3.96864 5.62725 3.5981 5.9154 3.44202C7.79535 2.42119 9.85252 1.8999 12.0131 1.8999C14.1576 1.8999 16.0333 2.37299 18.0893 3.43118C18.3871 3.58605 18.4986 3.94665 18.3426 4.23462C18.2378 4.44409 18.0359 4.5699 17.8131 4.5699ZM3.50312 9.8199C3.38197 9.8199 3.26287 9.78326 3.15601 9.71199C2.8815 9.52103 2.81888 9.149 3.01147 8.87217C4.01161 7.45783 5.28437 6.34765 6.79727 5.57103C9.97023 3.93403 14.0243 3.92837 17.1988 5.56094C18.7152 6.33935 19.9867 7.44083 20.984 8.84109C21.1783 9.10821 21.1144 9.49125 20.8402 9.68199C20.564 9.87413 20.192 9.81152 20.0017 9.53803C19.1101 8.28966 17.9819 7.3109 16.6475 6.62891C13.8035 5.17221 10.1676 5.17499 7.33888 6.63882C6.00105 7.3274 4.87067 8.31338 3.97994 9.55952C3.88433 9.72684 3.70485 9.8199 3.50312 9.8199ZM9.75312 21.8899C9.5906 21.8899 9.43537 21.8252 9.33241 21.7106C8.37609 20.7543 7.93536 20.1856 7.3059 19.0488C6.60908 17.8067 6.24312 16.2909 6.24312 14.6599C6.24312 11.6332 8.82937 9.1699 12.0031 9.1699C15.1769 9.1699 17.7631 11.6332 17.7631 14.6599C17.7631 14.9951 17.4983 15.2599 17.1631 15.2599C16.8279 15.2599 16.5631 14.9951 16.5631 14.6599C16.5631 12.2961 14.5188 10.3699 12.0031 10.3699C9.48746 10.3699 7.44312 12.2961 7.44312 14.6599C7.44312 16.0853 7.75986 17.3978 8.3605 18.4613C8.92996 19.4845 9.29611 19.9498 10.1956 20.861C10.4223 21.0996 10.4223 21.4702 10.1904 21.7139C10.0642 21.8286 9.91092 21.8899 9.75312 21.8899ZM16.9231 20.0399C15.7117 20.0399 14.6425 19.7333 13.767 19.1327C12.2493 18.1039 11.3431 16.4328 11.3431 14.6599C11.3431 14.3247 11.6079 14.0599 11.9431 14.0599C12.2783 14.0599 12.5431 14.3247 12.5431 14.6599C12.5431 16.0395 13.249 17.3371 14.4391 18.1371C15.1299 18.6041 15.9396 18.8299 16.9231 18.8299C17.1911 18.8299 17.5875 18.7941 17.9449 18.7316C18.2712 18.6711 18.5821 18.8895 18.6414 19.2217C18.7019 19.548 18.4835 19.8589 18.1521 19.9181C17.6948 20.0063 17.2532 20.0399 16.9231 20.0399ZM14.9131 22.0999C14.8681 22.0999 14.8161 22.0912 14.7564 22.0763C13.1543 21.6329 12.0981 21.036 10.9927 19.9509C9.57315 18.5415 8.79312 16.6657 8.79312 14.6599C8.79312 12.9827 10.2199 11.6199 11.9731 11.6199C13.7264 11.6199 15.1531 12.9827 15.1531 14.6599C15.1531 15.674 16.0378 16.4999 17.1331 16.4999C18.2284 16.4999 19.1131 15.674 19.1131 14.6599C19.1131 10.9471 15.9098 7.9299 11.9631 7.9299C9.15801 7.9299 6.59523 9.49094 5.44322 11.9033C5.06012 12.699 4.86312 13.6341 4.86312 14.6599C4.86312 15.8148 5.031 16.9128 5.52645 18.234C5.6468 18.5469 5.48918 18.8959 5.17901 19.0032C4.87 19.1221 4.51924 18.9599 4.40945 18.6549C3.91504 17.3331 3.67312 16.0213 3.67312 14.6599C3.67312 13.4477 3.90536 12.3427 4.36285 11.3769C5.71041 8.55003 8.69686 6.7199 11.9631 6.7199C16.5678 6.7199 20.3131 10.274 20.3131 14.6499C20.3131 16.3271 18.8864 17.6899 17.1331 17.6899C15.3799 17.6899 13.9531 16.3271 13.9531 14.6499C13.9531 13.6358 13.0684 12.8099 11.9731 12.8099C10.8778 12.8099 9.99312 13.6358 9.99312 14.6499C9.99312 16.3364 10.6447 17.9099 11.8335 19.0888C12.7758 20.0213 13.6729 20.5299 15.0582 20.9131C15.3784 20.9961 15.5651 21.3285 15.4808 21.6411C15.4225 21.9096 15.1783 22.0999 14.9131 22.0999Z" fill="black" fill-opacity="0.9"/>
</svg>
