<svg width="24" height="24" viewBox="0 0 24 24" fill="none" xmlns="http://www.w3.org/2000/svg">
<path fill-rule="evenodd" clip-rule="evenodd" d="M20 9H7.53018L9.6961 5.82693C9.79897 5.67622 9.78681 5.47499 9.66654 5.33777C9.52093 5.17164 9.26821 5.155 9.10208 5.30061L4.16934 9.62399C4.06102 9.71892 3.9989 9.85596 3.9989 10C3.9989 10.2761 4.22276 10.5 4.4989 10.5H20V9ZM3.9989 15H16.4687L14.3028 18.1731C14.1999 18.3238 14.2121 18.525 14.3324 18.6622C14.478 18.8284 14.7307 18.845 14.8968 18.6994L19.8296 14.376C19.9379 14.2811 20 14.144 20 14C20 13.7239 19.7761 13.5 19.5 13.5H17.9989H3.9989V15Z" fill="black" fill-opacity="0.9"/>
</svg>
