<svg width="24" height="24" viewBox="0 0 24 24" fill="none" xmlns="http://www.w3.org/2000/svg">
<path fill-rule="evenodd" clip-rule="evenodd" d="M12 5.99996C11.0379 5.99996 10.1111 6.19677 9.24196 6.54435C7.48873 4.75726 7.09055 3.61391 7.71684 3.01727C8.20025 2.55676 8.79994 2.68633 10.5826 3.53233C10.8446 3.6567 11.0037 3.73099 11.1744 3.80764C12.0824 4.2154 12.7554 4.41793 13.4245 4.41793C14.0228 4.41793 14.5272 4.35259 15.1479 4.22189L15.164 4.2185C15.9314 4.05691 16.1812 4.00431 16.3352 4.10229C16.4095 4.14958 16.4616 4.23195 16.5387 4.35407L16.5423 4.35984C16.7693 4.71921 16.3175 5.49922 14.9674 6.63143C14.0383 6.22982 13.0397 5.99996 12 5.99996ZM21 15.4117C21 12.4916 19.013 9.03151 16.1084 7.22978C17.6353 5.8569 18.1804 4.70604 17.5569 3.71898C16.9349 2.73428 16.5365 2.70319 14.9006 3.04764C14.3545 3.16264 13.9277 3.21793 13.4245 3.21793C12.9673 3.21793 12.4312 3.05658 11.666 2.71295C11.505 2.64065 11.352 2.56921 11.0971 2.44823C8.82154 1.36829 7.91389 1.17219 6.88914 2.14842C5.65264 3.32636 6.15826 5.00495 8.11133 7.09768C5.08769 8.858 3 12.4185 3 15.4117C3 19.5701 7.02944 22 12 22C16.9706 22 21 19.5701 21 15.4117ZM19.8 15.4117C19.8 18.6137 16.6413 20.8 12 20.8C7.35872 20.8 4.2 18.6137 4.2 15.4117C4.2 11.5275 8.04486 7.19996 12 7.19996C15.9551 7.19996 19.8 11.5275 19.8 15.4117ZM7.56066 14.0104L10.364 16.3137L16.1777 11L16.7383 11.5606L11.1207 17.6189C10.7165 18.0548 10.0235 18.044 9.63319 17.5956L7 14.571L7.56066 14.0104Z" fill="black" fill-opacity="0.9"/>
</svg>
