<svg width="24" height="24" viewBox="0 0 24 24" fill="none" xmlns="http://www.w3.org/2000/svg">
<path fill-rule="evenodd" clip-rule="evenodd" d="M18.8639 11.9931C20.5666 9.16233 20.9075 6.39986 19.5804 5.07276C18.4899 3.98223 16.3598 3.98324 13.9006 5.12734C13.6002 5.26712 13.2433 5.13687 13.1035 4.83643C12.9637 4.53598 13.094 4.17911 13.3944 4.03932C16.2603 2.70602 18.9094 2.70477 20.4289 4.22423C22.2726 6.06792 21.839 9.51659 19.7369 12.8661L20.9654 14.0946C21.395 14.5241 21.395 15.2206 20.9654 15.6502L15.45 21.1656C15.0204 21.5952 14.3239 21.5952 13.8944 21.1656L12.2366 19.5078C9.51891 20.7074 6.9436 20.7202 5.43825 19.2149C4.38551 18.1622 4.05566 16.5549 4.41709 14.686C4.48001 14.3607 4.79476 14.148 5.1201 14.2109C5.44545 14.2738 5.65818 14.5886 5.59526 14.9139C5.30317 16.4242 5.55069 17.6303 6.28678 18.3664C7.31474 19.3943 9.20392 19.4215 11.3189 18.5902L2.72208 9.99335C2.29251 9.56377 2.29251 8.86729 2.72208 8.43771L8.23752 2.92228C8.66709 2.4927 9.36358 2.4927 9.79315 2.92228L18.8639 11.9931V11.9931ZM18.1901 13.0163L9.01534 3.84152L3.64132 9.21553L12.4827 18.0569C13.7838 17.3773 15.1246 16.3999 16.3692 15.1552C17.0603 14.4641 17.669 13.7434 18.1901 13.0163V13.0163ZM19.0497 13.8759C18.5147 14.6044 17.9018 15.3197 17.2178 16.0038C15.9999 17.2217 14.6829 18.2137 13.3691 18.9433L14.6722 20.2464L20.0462 14.8724L19.0497 13.8759V13.8759Z" fill="black" fill-opacity="0.9"/>
</svg>
