<svg width="24" height="24" viewBox="0 0 24 24" fill="none" xmlns="http://www.w3.org/2000/svg">
<path fill-rule="evenodd" clip-rule="evenodd" d="M17.8667 3H8.7H7.5H6.13333C4.95513 3 4 4.00736 4 5.25V18.75C4 19.9926 4.95513 21 6.13333 21H7.5H8.7H17.8667C19.0449 21 20 19.9926 20 18.75V5.25C20 4.00736 19.0449 3 17.8667 3ZM6.06349 4.2H7.5V19.8H6.06349C5.5866 19.8 5.2 19.3892 5.2 18.8824V5.11765C5.2 4.61084 5.5866 4.2 6.06349 4.2ZM8.7 4.2V19.8H17.9365C18.4134 19.8 18.8 19.3892 18.8 18.8824V5.11765C18.8 4.61084 18.4134 4.2 17.9365 4.2H8.7ZM14.8429 13.6353L16.2143 11H17.5L16.1286 13.6353H17.5V14.6235H15.0143V15.5294H17.5V16.5176H15.0143V18H13.9857V16.5176H11.5V15.5294H13.9857V14.6235H11.5V13.6353H12.8714L11.5 11H12.7857L14.1571 13.6353H14.8429Z" fill="black" fill-opacity="0.9"/>
</svg>
