<svg width="24" height="24" viewBox="0 0 24 24" fill="none" xmlns="http://www.w3.org/2000/svg">
<path fill-rule="evenodd" clip-rule="evenodd" d="M3.10002 7.68172C3.10002 8.01309 2.8314 8.28172 2.50002 8.28172C2.16865 8.28172 1.90002 8.01309 1.90002 7.68172V5.09081C1.90002 3.32852 3.32864 1.8999 5.09093 1.8999H7.68184C8.01321 1.8999 8.28184 2.16853 8.28184 2.4999C8.28184 2.83127 8.01321 3.0999 7.68184 3.0999H5.09093C3.99138 3.0999 3.10002 3.99126 3.10002 5.09081V7.68172ZM16.3182 3.0999C15.9868 3.0999 15.7182 2.83127 15.7182 2.4999C15.7182 2.16853 15.9868 1.8999 16.3182 1.8999H18.9091C20.6714 1.8999 22.1 3.32852 22.1 5.09081V7.68172C22.1 8.01309 21.8314 8.28172 21.5 8.28172C21.1687 8.28172 20.9 8.01309 20.9 7.68172V5.09081C20.9 3.99126 20.0087 3.0999 18.9091 3.0999H16.3182ZM21.5 15.7181C21.1687 15.7181 20.9 15.9867 20.9 16.3181V18.909C20.9 20.0085 20.0087 20.8999 18.9091 20.8999H16.3182C15.9868 20.8999 15.7182 21.1685 15.7182 21.4999C15.7182 21.8313 15.9868 22.0999 16.3182 22.0999H18.9091C20.6714 22.0999 22.1 20.6713 22.1 18.909V16.3181C22.1 15.9867 21.8314 15.7181 21.5 15.7181ZM7.68184 20.8999C8.01321 20.8999 8.28184 21.1685 8.28184 21.4999C8.28184 21.8313 8.01321 22.0999 7.68184 22.0999H5.09093C3.32864 22.0999 1.90002 20.6713 1.90002 18.909V16.3181C1.90002 15.9867 2.16865 15.7181 2.50002 15.7181C2.8314 15.7181 3.10002 15.9867 3.10002 16.3181V18.909C3.10002 20.0085 3.99138 20.8999 5.09093 20.8999H7.68184ZM9.00002 8.9999C9.00002 9.55219 8.55231 9.9999 8.00002 9.9999C7.44774 9.9999 7.00002 9.55219 7.00002 8.9999C7.00002 8.44762 7.44774 7.9999 8.00002 7.9999C8.55231 7.9999 9.00002 8.44762 9.00002 8.9999ZM11.4 9.9999C11.4 9.66853 11.6687 9.3999 12 9.3999C12.3314 9.3999 12.6 9.66853 12.6 9.9999V12.9999C12.6 13.3313 12.3314 13.5999 12 13.5999C11.6687 13.5999 11.4 13.3313 11.4 12.9999V9.9999ZM8.5964 15.4438C8.35122 15.2209 8.33316 14.8415 8.55608 14.5963C8.77899 14.3511 9.15846 14.333 9.40365 14.556C10.013 15.1099 10.8687 15.3933 12 15.3933C13.1313 15.3933 13.9871 15.1099 14.5964 14.556C14.8416 14.333 15.2211 14.3511 15.444 14.5963C15.6669 14.8415 15.6488 15.2209 15.4036 15.4438C14.5561 16.2144 13.4119 16.5933 12 16.5933C10.5882 16.5933 9.44395 16.2144 8.5964 15.4438ZM16 9.9999C16.5523 9.9999 17 9.55219 17 8.9999C17 8.44762 16.5523 7.9999 16 7.9999C15.4477 7.9999 15 8.44762 15 8.9999C15 9.55219 15.4477 9.9999 16 9.9999Z" fill="black" fill-opacity="0.9"/>
</svg>
