<svg width="24" height="24" viewBox="0 0 24 24" fill="none" xmlns="http://www.w3.org/2000/svg">
<path fill-rule="evenodd" clip-rule="evenodd" d="M2 5.00087C2 4.44811 2.45531 4 2.9918 4H21.0082C21.556 4 22 4.44463 22 5.00087V10H20.8V5.2H3.2V18.8H14V20H2.9918C2.44405 20 2 19.5554 2 18.9991V5.00087ZM13.23 12.3H22V13.5H10.4989C10.2228 13.5 9.99891 13.2761 9.99891 13C9.99891 12.856 10.061 12.7189 10.1693 12.624L15.1021 8.30061C15.2682 8.155 15.5209 8.17163 15.6665 8.33777C15.7868 8.47499 15.799 8.67622 15.6961 8.82693L13.23 12.3ZM9.99891 16.7H18.77L16.3028 20.1731C16.1999 20.3238 16.2121 20.525 16.3324 20.6622C16.478 20.8284 16.7307 20.845 16.8968 20.6994L21.8296 16.376C21.9379 16.2811 22 16.144 22 16C22 15.7239 21.7761 15.5 21.5 15.5H19.9989H9.99891V16.7Z" fill="black" fill-opacity="0.9"/>
</svg>
