<svg width="24" height="24" viewBox="0 0 24 24" fill="none" xmlns="http://www.w3.org/2000/svg">
<path fill-rule="evenodd" clip-rule="evenodd" d="M20.5662 2.74618C20.3714 2.5514 20.0557 2.5514 19.8609 2.74618L10.3514 12.2557L9.03941 14.5524C8.98735 14.6435 8.98684 14.7552 9.03807 14.8469C9.11874 14.9911 9.30107 15.0426 9.44531 14.962L11.7619 13.6665L21.2716 4.15685C21.4663 3.96208 21.4663 3.64629 21.2716 3.45152L20.5662 2.74618ZM14 4.2001V3.0001H4C3.44772 3.0001 3 3.44781 3 4.0001V20.0001C3 20.5524 3.44772 21.0001 4 21.0001H20C20.5523 21.0001 21 20.5524 21 20.0001V10.0001H19.8V19.8001H4.2V4.2001H14Z" fill="black" fill-opacity="0.9"/>
</svg>
