<svg width="24" height="24" viewBox="0 0 24 24" fill="none" xmlns="http://www.w3.org/2000/svg">
<path fill-rule="evenodd" clip-rule="evenodd" d="M2 12C2 17.5228 6.47715 22 12 22C17.5228 22 22 17.5228 22 12C22 6.47715 17.5228 2 12 2C6.47715 2 2 6.47715 2 12ZM20.8 12C20.8 16.8601 16.8601 20.8 12 20.8C7.13989 20.8 3.2 16.8601 3.2 12C3.2 7.13989 7.13989 3.2 12 3.2C14.2247 3.2 16.2565 4.02551 17.806 5.38692L15.82 7.37292C14.7823 6.5153 13.4513 6 12 6C8.68629 6 6 8.68629 6 12C6 15.3137 8.68629 18 12 18C15.3137 18 18 15.3137 18 12C18 10.5698 17.4996 9.2565 16.6644 8.22559L18.6517 6.23826C19.9901 7.78204 20.8 9.79644 20.8 12ZM14.9666 8.22626C14.1501 7.58347 13.1198 7.2 12 7.2C9.34903 7.2 7.2 9.34903 7.2 12C7.2 14.651 9.34903 16.8 12 16.8C14.651 16.8 16.8 14.651 16.8 12C16.8 10.9014 16.4309 9.88896 15.81 9.07998L13.4081 11.4818C13.4675 11.6433 13.5 11.8179 13.5 12C13.5 12.8284 12.8284 13.5 12 13.5C11.1716 13.5 10.5 12.8284 10.5 12C10.5 11.1716 11.1716 10.5 12 10.5C12.2047 10.5 12.3998 10.541 12.5776 10.6153L14.9666 8.22626Z" fill="black" fill-opacity="0.9"/>
</svg>
