<svg width="24" height="24" viewBox="0 0 24 24" fill="none" xmlns="http://www.w3.org/2000/svg">
<path fill-rule="evenodd" clip-rule="evenodd" d="M13.3033 5.18198C13.4986 4.98672 13.4986 4.67014 13.3033 4.47487L12.8083 3.9799L10.8284 2L9.9799 2.84853L11.1692 4.03784C6.58809 4.45713 3 8.30954 3 13C3 17.9706 7.02944 22 12 22C16.9706 22 21 17.9706 21 13C21 10.5147 19.9926 8.26472 18.364 6.63604L17.5154 7.48457C18.9696 8.93869 19.8 10.9021 19.8 13C19.8 17.3078 16.3078 20.8 12 20.8C7.69218 20.8 4.2 17.3078 4.2 13C4.2 8.83411 7.46585 5.43101 11.5769 5.21128L9.9799 6.80833L10.8284 7.65685L12.8083 5.67696L13.3033 5.18198Z" fill="black" fill-opacity="0.9"/>
</svg>
