<svg width="24" height="24" viewBox="0 0 24 24" fill="none" xmlns="http://www.w3.org/2000/svg">
<path fill-rule="evenodd" clip-rule="evenodd" d="M11.9984 4.40018L3.07831 19.8543L20.9215 19.8528L11.9984 4.40018ZM2.73202 21.0544C2.17973 21.0544 1.73198 20.6067 1.73193 20.0544C1.73192 19.8789 1.77811 19.7065 1.86585 19.5545L11.1323 3.50027C11.4084 3.02194 12.0199 2.858 12.4983 3.13408C12.6503 3.22184 12.7766 3.34808 12.8644 3.5001L22.1339 19.5527C22.4101 20.031 22.2463 20.6426 21.768 20.9188C21.616 21.0066 21.4435 21.0528 21.268 21.0528L2.73202 21.0544ZM11.3726 9.9542H12.6275L12.5298 14.6759H11.4702L11.3726 9.9542ZM11.9976 17.0978C11.6021 17.0978 11.2896 16.7901 11.2896 16.4044C11.2896 16.0186 11.6021 15.7159 11.9976 15.7159C12.398 15.7159 12.7105 16.0186 12.7105 16.4044C12.7105 16.7901 12.398 17.0978 11.9976 17.0978Z" fill="black" fill-opacity="0.9"/>
</svg>
