<svg width="24" height="24" viewBox="0 0 24 24" fill="none" xmlns="http://www.w3.org/2000/svg">
<path fill-rule="evenodd" clip-rule="evenodd" d="M12 22C6.47715 22 2 17.5228 2 12C2 6.47715 6.47715 2 12 2C17.5228 2 22 6.47715 22 12C22 17.5228 17.5228 22 12 22ZM12 20.8C16.8601 20.8 20.8 16.8601 20.8 12C20.8 7.13989 16.8601 3.2 12 3.2C7.13989 3.2 3.2 7.13989 3.2 12C3.2 16.8601 7.13989 20.8 12 20.8ZM17 11.4H9.29706L12.0556 8.64142L11.2071 7.79289L7.67157 11.3284C7.28105 11.719 7.28105 12.3521 7.67157 12.7426L11.2071 16.2782L12.0556 15.4296L9.22599 12.6H17V11.4Z" fill="black" fill-opacity="0.9"/>
</svg>
