<svg width="24" height="24" viewBox="0 0 24 24" fill="none" xmlns="http://www.w3.org/2000/svg">
<path fill-rule="evenodd" clip-rule="evenodd" d="M8.00005 17.7C7.06116 17.7 6.30005 16.9389 6.30005 16C6.30005 15.0612 7.06116 14.3 8.00005 14.3H17.6339C17.8821 14.3 18.0441 14.1733 18.0606 14.0846V12.1127C18.0606 11.3491 18.3551 10.6128 18.8344 10.1434C19.1873 9.6729 19.8087 9.30005 20.3803 9.30005C21.3023 9.30005 21.9782 10.1027 21.8515 10.9852C21.8431 11.069 21.8303 11.2077 21.8175 11.3675C21.8114 11.444 21.8059 11.518 21.8013 11.5881C21.7905 11.7499 21.7846 11.8831 21.7846 11.9719C21.7846 12.7874 21.8663 13.5393 22.0453 14.1965C22.0876 14.3657 22.1307 14.5118 22.1901 14.6936C22.2154 14.7706 22.2154 14.7706 22.2466 14.8646C22.5513 15.8551 22.7 16.8403 22.7 17.8874L22.6958 18.7393C22.6152 19.4641 22.3083 20.2094 21.8714 20.821C21.1198 21.9066 19.8765 22.5815 18.4085 22.7L16.5589 22.6998C15.3617 22.6679 14.199 22.1326 13.3361 21.2697C13.1729 21.1066 13.066 20.9595 12.8707 20.6594C12.1905 19.8432 11.6963 18.8616 11.3797 17.7H8.00005ZM12.3335 16.5L12.4185 16.8949C12.6817 18.119 13.1371 19.1046 13.8245 19.934C14.0153 20.2202 14.0999 20.3365 14.1846 20.4211C14.8375 21.0741 15.7123 21.4768 16.5775 21.5L18.3675 21.5017C19.431 21.4142 20.3446 20.9182 20.889 20.132C21.2181 19.6711 21.4465 19.1166 21.5 18.662V17.8874C21.5 16.9602 21.3693 16.0939 21.1032 15.2286C21.0766 15.1489 21.0766 15.1489 21.0494 15.0661C20.9819 14.8593 20.9311 14.687 20.8839 14.4978C20.6774 13.7409 20.5846 12.8863 20.5846 11.9719C20.5846 11.8509 20.5915 11.6945 20.6039 11.5083C20.609 11.4326 20.6148 11.3534 20.6214 11.2718C20.6349 11.103 20.6484 10.9568 20.66 10.8448C20.6881 10.6479 20.5637 10.5 20.3803 10.5C20.2252 10.5 19.9374 10.6727 19.748 10.917C19.4325 11.2324 19.2606 11.6622 19.2606 12.1127V13.8733L19.2568 14.1466C19.1557 14.955 18.4592 15.5 17.6339 15.5H8.00005C7.72391 15.5 7.50005 15.7239 7.50005 16C7.50005 16.2762 7.72391 16.5 8.00005 16.5H12.3335ZM16 6.30005C16.9389 6.30005 17.7 7.06116 17.7 8.00005C17.7 8.93893 16.9389 9.70005 16 9.70005H6.36625C6.11797 9.70005 5.95603 9.82678 5.93949 9.91554V11.8874C5.93949 12.651 5.64496 13.3873 5.16568 13.8567C4.81278 14.3272 4.19137 14.7 3.61977 14.7C2.6978 14.7 2.02189 13.8974 2.14859 13.0149C2.15697 12.9311 2.16978 12.7924 2.18256 12.6326C2.18868 12.5561 2.19416 12.4821 2.19883 12.412C2.20962 12.2502 2.21554 12.117 2.21554 12.0282C2.21554 11.2127 2.13382 10.4608 1.95475 9.80363C1.90151 9.59066 1.85886 9.45206 1.75354 9.13549C1.44876 8.14495 1.30005 7.15975 1.30005 6.11272L1.30433 5.26077C1.38486 4.53604 1.69175 3.79072 2.12874 3.17907C2.88026 2.09354 4.12363 1.41857 5.5916 1.30005L7.44124 1.3003C8.63843 1.33222 9.8011 1.86749 10.664 2.73043C10.8272 2.89355 10.9341 3.0406 11.1294 3.34065C11.8096 4.1569 12.3037 5.13848 12.6204 6.30005H16ZM11.6666 7.50005L11.5816 7.10517C11.3184 5.88114 10.863 4.89548 10.1756 4.06613C9.98478 3.77994 9.9002 3.66365 9.81551 3.57895C9.1626 2.92604 8.28779 2.5233 7.42258 2.50005L5.63264 2.49836C4.56911 2.58595 3.65553 3.08189 3.11114 3.86813C2.78196 4.32898 2.55364 4.88349 2.50005 5.33808V6.11272C2.50005 7.0399 2.63081 7.90616 2.89693 8.77151C3.00633 9.09972 3.05635 9.26229 3.11623 9.50229C3.32265 10.2591 3.41554 11.1138 3.41554 12.0282C3.41554 12.1492 3.40859 12.3056 3.39618 12.4918C3.39113 12.5675 3.38526 12.6467 3.37874 12.7283C3.36523 12.8971 3.35174 13.0433 3.34009 13.1553C3.31195 13.3522 3.43642 13.5 3.61977 13.5C3.77486 13.5 4.06265 13.3274 4.25213 13.0831C4.56756 12.7677 4.73949 12.3379 4.73949 11.8874V10.1268L4.74335 9.85352C4.84439 9.04515 5.54091 8.50005 6.36625 8.50005H16C16.2762 8.50005 16.5 8.27619 16.5 8.00005C16.5 7.72391 16.2762 7.50005 16 7.50005H11.6666Z" fill="black" fill-opacity="0.9"/>
</svg>
