<svg width="24" height="24" viewBox="0 0 24 24" fill="none" xmlns="http://www.w3.org/2000/svg">
<path fill-rule="evenodd" clip-rule="evenodd" d="M9.89197 8.25683C9.66559 8.16628 9.53753 7.92566 9.58887 7.68731L10.7809 2.15275C10.8442 1.85908 11.1503 1.68709 11.434 1.78578L12.6873 2.22173C12.9634 2.31775 13.0986 2.62907 12.9803 2.89635L10.6952 8.05908C10.5862 8.30515 10.3021 8.42088 10.0522 8.32094L9.89197 8.25683ZM12.2 10.0409C12.2 9.78896 12.3874 9.57638 12.6374 9.54483L21.9604 8.36813C22.2508 8.33148 22.5104 8.55096 22.5226 8.84338L22.5781 10.1742C22.59 10.4601 22.3599 10.6977 22.0737 10.695L12.6952 10.6048C12.4209 10.6022 12.2 10.3791 12.2 10.1048V10.0409ZM6.75547 10.6078C7.00895 10.6034 7.21899 10.4099 7.24421 10.1577L7.25548 10.045C7.28082 9.79163 7.1117 9.55969 6.86273 9.50634L2.2538 8.51871C1.95972 8.45569 1.67696 8.66468 1.65091 8.9643L1.54806 10.1471C1.52236 10.4427 1.75827 10.6955 2.05495 10.6903L6.75547 10.6078ZM8.44164 13.0625C8.69796 13.1394 8.84829 13.4045 8.78272 13.664L6.73367 21.7711C6.6618 22.0554 6.3617 22.2172 6.08466 22.1208L4.8023 21.6748C4.53003 21.5801 4.39403 21.2754 4.50534 21.0094L7.72618 13.3152C7.82498 13.0792 8.08601 12.9558 8.33108 13.0294L8.44164 13.0625ZM12.106 12.8374C11.9326 12.6462 11.6421 12.6184 11.4356 12.7733L11.3912 12.8066C11.1737 12.9697 11.1264 13.2766 11.2846 13.4977L17.4867 22.1624C17.6559 22.3987 17.9902 22.4415 18.2134 22.2555L19.1994 21.4338C19.4179 21.2518 19.4407 20.9244 19.2497 20.7138L12.106 12.8374Z" fill="black" fill-opacity="0.9"/>
</svg>
