<svg width="24" height="24" viewBox="0 0 24 24" fill="none" xmlns="http://www.w3.org/2000/svg">
<path fill-rule="evenodd" clip-rule="evenodd" d="M6.54362 7.02708L6.0474 5.17515C5.9054 4.64521 6.21997 4.10047 6.75194 3.95793L15.4538 1.62627C15.9849 1.48396 16.5306 1.79838 16.6726 2.32815L17.4508 5.2323L17.9337 5.10289C18.7339 4.88848 19.5564 5.36335 19.7708 6.16355L21.5826 12.925C21.797 13.7252 21.3221 14.5477 20.5219 14.7621L20.0389 14.8916L20.8171 17.7957C20.9591 18.3257 20.6445 18.8704 20.1126 19.0129L11.4107 21.3446C10.8796 21.4869 10.3339 21.1725 10.1919 20.6427L10.0245 20.0179L7.73013 21.4626C7.28381 21.7437 6.69595 21.6298 6.38692 21.2024L2.9476 16.4455C2.92906 16.4199 2.91174 16.3933 2.8957 16.366C2.616 15.8898 2.7753 15.277 3.25152 14.9973L5.14547 13.8849C4.44074 12.0169 4.24919 10.4688 4.57081 9.24056C4.85667 8.14893 5.70992 7.37065 6.54362 7.02708ZM7.74181 6.86235C8.85502 7.13989 12.0333 9.68622 12.6281 9.85385C13.2419 10.0268 13.3598 12.0413 12.1949 12.8577C11.7446 13.1734 11.2406 13.3416 10.683 13.3625C10.3113 13.3763 9.89378 13.3102 9.43038 13.1641L9.43572 13.1841L11.2976 20.1326L19.6045 17.9067L18.8798 15.2021L18.0153 15.4338C17.5191 15.5668 17.0028 15.3021 16.8211 14.8215L14.1732 7.81795C13.8802 7.04306 14.2709 6.17738 15.0458 5.88441C15.0924 5.86678 15.1399 5.85149 15.1881 5.83859L16.2916 5.54288L15.5669 2.83829L7.25998 5.06413L7.74181 6.86235ZM20.2113 13.603C20.3714 13.5602 20.4663 13.3957 20.4235 13.2356L18.6117 6.47413C18.5688 6.31409 18.4043 6.21912 18.2443 6.262L15.4986 6.9977C15.489 7.00028 15.4795 7.00334 15.4702 7.00686C15.3152 7.06546 15.2371 7.23859 15.2957 7.39357L17.8796 14.2278L20.2113 13.603ZM12.7945 16.8327L16.6582 15.7974L16.9688 16.9565L13.1051 17.9918L12.7945 16.8327ZM11.0502 10.3168C10.7762 10.1327 9.69389 9.38412 9.57404 9.30217C9.46773 9.22947 9.36775 9.16154 9.27174 9.0968C8.31217 8.44978 7.60629 8.04854 7.48553 8.03265C6.95015 7.96223 5.96387 8.65783 5.73167 9.54455C5.48196 10.4981 5.6438 11.8062 6.26823 13.4614L6.62517 14.4075L4.04892 15.9207L7.24946 20.3472L9.70015 18.8074L7.7101 11.3804L9.73566 12.0274C10.4954 12.2579 11.0495 12.1952 11.5062 11.8751C11.7082 11.7335 11.8573 11.4143 11.8809 11.0392C11.8856 10.9644 11.8845 10.8944 11.8793 10.8342C11.6642 10.721 11.4076 10.5568 11.0502 10.3168Z" fill="black" fill-opacity="0.9"/>
</svg>
