<svg width="24" height="24" viewBox="0 0 24 24" fill="none" xmlns="http://www.w3.org/2000/svg">
<path fill-rule="evenodd" clip-rule="evenodd" d="M12.6 13.5V4.2615L14.687 6.34851L15.5355 5.49998L12.7071 2.67156C12.3166 2.28103 11.6834 2.28103 11.2929 2.67156L8.46447 5.49998L9.31299 6.34851L11.4 4.26151V13.5H12.6ZM16 8.19998H18.8V20.8H5.2V8.19998H8V6.99998H4.99896C4.44725 6.99998 4 7.4489 4 7.99579V21.0042C4 21.5541 4.44892 22 4.99581 22H19.0042C19.5542 22 20 21.5511 20 21.0042V7.99579C20 7.44582 19.5509 6.99998 19.001 6.99998H16V8.19998Z" fill="black" fill-opacity="0.9"/>
</svg>
