<svg width="24" height="24" viewBox="0 0 24 24" fill="none" xmlns="http://www.w3.org/2000/svg">
<path fill-rule="evenodd" clip-rule="evenodd" d="M12 2C9.79086 2 8 3.79086 8 6V7H5.00087C4.44463 7 4 7.45107 4 8.00748V20.0081C4 21.1066 4.89277 22 5.99406 22H18.0059C19.1055 22 20 21.1082 20 20.0081V8.00748C20 7.44892 19.5519 7 18.9991 7H16V6C16 3.79086 14.2091 2 12 2ZM14.8 8.2V11H16V8.2H18.8V20.0081C18.8 20.4444 18.4438 20.8 18.0059 20.8H5.99406C5.55592 20.8 5.2 20.4443 5.2 20.0081V8.2H8V11H9.2L9.2 8.2H14.8ZM14.8 7V6C14.8 4.4536 13.5464 3.2 12 3.2C10.4536 3.2 9.2 4.4536 9.2 6L9.2 7H14.8Z" fill="black" fill-opacity="0.9"/>
</svg>
