<svg width="24" height="24" viewBox="0 0 24 24" fill="none" xmlns="http://www.w3.org/2000/svg">
<path fill-rule="evenodd" clip-rule="evenodd" d="M15.9414 14.2806L19.8828 10.4386L14.4359 9.64716L11.9999 4.71141L9.56398 9.64716L4.11705 10.4386L8.05848 14.2806L7.12804 19.7055L11.9999 17.1442L16.8718 19.7055L15.9414 14.2806ZM11.9999 18.4999L7.32775 20.9563C6.83891 21.2133 6.23428 21.0253 5.97728 20.5365C5.87494 20.3418 5.83962 20.1188 5.8768 19.9021L6.76911 14.6995L2.98924 11.0151C2.59376 10.6296 2.58567 9.99647 2.97117 9.60099C3.12468 9.44351 3.32582 9.34102 3.54346 9.30939L8.7671 8.55036L11.1032 3.81693C11.3476 3.32168 11.9472 3.11834 12.4425 3.36276C12.6397 3.46009 12.7993 3.61972 12.8967 3.81693L15.2327 8.55036L20.4564 9.30939C21.0029 9.38881 21.3816 9.89626 21.3022 10.4428C21.2706 10.6604 21.1681 10.8616 21.0106 11.0151L17.2307 14.6995L18.123 19.9021C18.2164 20.4464 17.8508 20.9634 17.3065 21.0567C17.0897 21.0939 16.8667 21.0586 16.6721 20.9563L11.9999 18.4999Z" fill="black" fill-opacity="0.9"/>
</svg>
