<svg width="24" height="24" viewBox="0 0 24 24" fill="none" xmlns="http://www.w3.org/2000/svg">
<path fill-rule="evenodd" clip-rule="evenodd" d="M5 2C4.44772 2 4 2.44772 4 3V21C4 21.5523 4.44772 22 5 22H19C19.5523 22 20 21.5523 20 21V3C20 2.44772 19.5523 2 19 2H5ZM5.2 20.8V3.2H18.8V20.8H5.2ZM8.5 8C9.32843 8 10 7.32843 10 6.5C10 5.67157 9.32843 5 8.5 5C7.67157 5 7 5.67157 7 6.5C7 7.32843 7.67157 8 8.5 8ZM14.5 10H7V11.2H14.5V10ZM7 13H11V14.2H7V13ZM11 16H7V17.2H11V16Z" fill="black" fill-opacity="0.9"/>
</svg>
