<svg width="24" height="24" viewBox="0 0 24 24" fill="none" xmlns="http://www.w3.org/2000/svg">
<path fill-rule="evenodd" clip-rule="evenodd" d="M3.20696 14.2071C2.81643 13.8166 2.81643 13.1834 3.20696 12.7929L12.707 3.29289C12.8945 3.10536 13.1488 3 13.4141 3H19.9998C20.5521 3 20.9998 3.44772 20.9998 4V10.5858C20.9998 10.851 20.8945 11.1054 20.707 11.2929L11.207 20.7929C10.8164 21.1834 10.1833 21.1834 9.79274 20.7929L3.20696 14.2071ZM19.7998 10.5029V4.2H13.4969L4.19691 13.5L10.4998 19.8029L19.7998 10.5029ZM17.4998 8C17.4998 8.82843 16.8283 9.5 15.9998 9.5C15.1714 9.5 14.4998 8.82843 14.4998 8C14.4998 7.17157 15.1714 6.5 15.9998 6.5C16.8283 6.5 17.4998 7.17157 17.4998 8Z" fill="black" fill-opacity="0.9"/>
</svg>
