<svg width="24" height="24" viewBox="0 0 24 24" fill="none" xmlns="http://www.w3.org/2000/svg">
<path fill-rule="evenodd" clip-rule="evenodd" d="M9.71642 4.66687C9.70935 4.64992 9.70171 4.63321 9.6935 4.61679C9.4959 4.22161 9.01537 4.06143 8.62018 4.25902L5.2 5.96911V17.4362L9.13093 19.1209C9.18976 19.1461 9.25141 19.1642 9.31454 19.1747C9.75036 19.2473 10.1625 18.9529 10.2352 18.5171L10.9351 14.3175L13.3958 13.4973L9.71642 4.66687ZM13.9794 14.5677L12 15.2275L11.4189 18.7144C11.2373 19.8039 10.2068 20.5399 9.11727 20.3583C8.95942 20.332 8.80531 20.2869 8.65823 20.2239L4.60608 18.4872C4.2384 18.3296 4 17.9681 4 17.5681V5.8455C4 5.46673 4.214 5.12047 4.55279 4.95108L8.08353 3.1857C9.07148 2.69173 10.2728 3.09218 10.7668 4.08013C10.7873 4.12119 10.8065 4.16295 10.8241 4.20533L14.5862 13.2344C14.7986 13.7442 14.5576 14.3297 14.0478 14.5421C14.0253 14.5514 14.0025 14.56 13.9794 14.5677ZM17.8083 17.8082C19.0761 16.5404 19.8 14.829 19.8 12.9999C19.8 11.1708 19.0761 9.45936 17.8083 8.19156L18.6569 7.34303C20.1046 8.79075 21 10.7907 21 12.9999C21 15.209 20.1046 17.209 18.6569 18.6567L17.8083 17.8082ZM17 12.9999C17 14.0763 16.5745 15.0822 15.8284 15.8283L16.677 16.6768C17.618 15.7358 18.2 14.4358 18.2 12.9999C18.2 11.5639 17.618 10.2639 16.677 9.32293L15.8284 10.1715C16.5745 10.9175 17 11.9235 17 12.9999Z" fill="black" fill-opacity="0.9"/>
</svg>
