<svg width="24" height="24" viewBox="0 0 24 24" fill="none" xmlns="http://www.w3.org/2000/svg">
<path fill-rule="evenodd" clip-rule="evenodd" d="M20 3H4C3.44772 3 3 3.44772 3 4V20C3 20.5523 3.44772 21 4 21H20C20.5523 21 21 20.5523 21 20V4C21 3.44772 20.5523 3 20 3ZM4.2 19.8V4.2H19.8V19.8H4.2ZM7.57 8.86H11.53C11.28 8.4 10.97 7.97 10.61 7.56L11.66 7.18C12.02 7.65 12.35 8.21 12.65 8.86H16.43V9.9H14.92C14.44 11.4 13.74 12.65 12.82 13.66C13.85 14.48 15.13 15.16 16.65 15.72L16.07 16.61C14.47 16.01 13.14 15.27 12.08 14.39C10.96 15.38 9.58 16.11 7.95 16.57L7.39 15.65C8.98 15.24 10.3 14.6 11.34 13.72C10.26 12.62 9.51 11.35 9.09 9.9H7.57V8.86ZM12.08 13.01C11.16 12.11 10.5 11.08 10.09 9.9H13.84C13.45 11.11 12.86 12.15 12.08 13.01Z" fill="black" fill-opacity="0.9"/>
</svg>
