<svg width="24" height="24" viewBox="0 0 24 24" fill="none" xmlns="http://www.w3.org/2000/svg">
<path fill-rule="evenodd" clip-rule="evenodd" d="M11.2 10H12.9975C13.5442 10 14 10.4488 14 11.0025V12.8H20.8V3.2H11.2V10ZM14 14V20.9975C14 21.5442 13.5512 22 12.9975 22H3.00247C2.45576 22 2 21.5512 2 20.9975V11.0025C2 10.4558 2.44882 10 3.00247 10H10V3.00247C10 2.45576 10.4488 2 11.0025 2H20.9975C21.5442 2 22 2.44882 22 3.00247V12.9975C22 13.5442 21.5512 14 20.9975 14H14ZM3.2 20.8V11.2H12.8V20.8H3.2ZM8.945 14.6969H6.78057C7.06289 15.3629 7.44655 15.9565 7.93155 16.4704C8.35865 15.9782 8.69887 15.3918 8.945 14.6969ZM11.2252 14.6969H10.1322C9.79195 15.6814 9.32866 16.4994 8.73507 17.1726C9.45896 17.6938 10.3349 18.0774 11.3845 18.3091C11.1456 18.5407 10.8343 19.004 10.6751 19.2936C9.5603 19.004 8.65544 18.5552 7.90984 17.9544C7.1208 18.5769 6.16527 19.033 5.02152 19.3515C4.9057 19.0981 4.58719 18.6059 4.3845 18.3598C5.49205 18.1136 6.39691 17.7372 7.12804 17.2015C6.52721 16.5066 6.06392 15.6741 5.6875 14.6969H4.54376V13.669H7.52618C7.45379 13.3794 7.32349 13.0102 7.18595 12.7207L8.31521 12.3877C8.49619 12.7279 8.69887 13.184 8.77126 13.488L8.18491 13.669H11.2252V14.6969ZM17.5508 10.6367L17.1211 9.26953H15.1406L14.7109 10.6367H13.5L15.457 5H16.8438L18.8047 10.6367H17.5508ZM16.1172 6.07812L15.3945 8.38672H16.8672L16.1445 6.07812H16.1172Z" fill="black" fill-opacity="0.9"/>
</svg>
