<svg width="24" height="24" viewBox="0 0 24 24" fill="none" xmlns="http://www.w3.org/2000/svg">
<path fill-rule="evenodd" clip-rule="evenodd" d="M3.2 5.2V17.8H20.8V5.2H3.2ZM2 5C2 4.44772 2.44772 4 3 4H21C21.5523 4 22 4.44772 22 5V18C22 18.5523 21.5523 19 21 19H3C2.44772 19 2 18.5523 2 18V5ZM8 21.3C8 20.7477 8.44772 20.3 9 20.3H15C15.5523 20.3 16 20.7477 16 21.3V21.5H8V21.3ZM13.8438 15H15.04L17.5547 7.9541H16.3877L14.4639 13.7695H14.4346L12.5156 7.9541H11.9629H11.3291H6.55762V8.89648H8.71582V15H9.80957V8.89648H11.6654L13.8438 15Z" fill="black" fill-opacity="0.9"/>
</svg>
