<svg width="24" height="24" viewBox="0 0 24 24" fill="none" xmlns="http://www.w3.org/2000/svg">
<path fill-rule="evenodd" clip-rule="evenodd" d="M7.5 8.50009L11.2929 4.7072C11.6834 4.31668 12.3166 4.31668 12.7071 4.7072C12.8946 4.89474 13 5.14909 13 5.41431V18.5859C13 19.1382 12.5523 19.5859 12 19.5859C11.7348 19.5859 11.4804 19.4805 11.2929 19.293L7.5 15.5001H3C2.44772 15.5001 2 15.0524 2 14.5001V9.50009C2 8.94781 2.44772 8.50009 3 8.50009H7.5ZM12 5.41431L7.91421 9.50009H3V14.5001H7.91421L12 18.5859V5.41431ZM16.5 12.0001C16.5 13.0765 16.0745 14.0824 15.3284 14.8285L16.177 15.677C17.118 14.736 17.7 13.436 17.7 12.0001C17.7 10.5642 17.118 9.26415 16.177 8.32314L15.3284 9.17167C16.0745 9.91775 16.5 10.9237 16.5 12.0001Z" fill="black" fill-opacity="0.9"/>
</svg>
