<svg width="24" height="24" viewBox="0 0 24 24" fill="none" xmlns="http://www.w3.org/2000/svg">
<path fill-rule="evenodd" clip-rule="evenodd" d="M20.5042 16.6007L16.9097 15.2507C16.5283 15.1238 16.2663 15.1713 15.9148 15.3628C15.1628 15.7799 13.8602 16.4844 13.1681 16.8432C13.0458 16.9089 12.9393 16.9369 12.8162 16.9369C12.696 16.9369 12.5862 16.904 12.4771 16.837C11.2802 16.1328 10.2813 15.383 9.45813 14.5471C8.6244 13.7146 7.8721 12.7105 7.17924 11.536C7.10931 11.4223 7.07252 11.2978 7.07252 11.1873C7.07252 11.0736 7.1039 10.9524 7.1611 10.8464C7.54528 10.0938 8.28363 8.73273 8.64193 8.10664C8.84138 7.74181 8.89172 7.45697 8.75483 7.08109L7.41954 3.53598C7.12778 2.84593 6.48968 2.41884 5.75301 2.39432C5.67556 2.39393 5.62129 2.3971 5.56657 2.40299C5.45638 2.41484 5.34782 2.43705 5.23857 2.46673C5.16584 2.48649 5.10522 2.50598 5.054 2.52368C3.18979 3.20712 1.94116 4.9463 1.94116 6.92927C1.94116 7.20269 1.97163 7.47373 2.02412 7.75843C2.04568 7.87537 2.09039 8.08473 2.08932 8.07725C2.86931 11.4953 4.58314 14.5539 7.02241 16.9895C9.46156 19.425 12.5244 21.1361 15.8901 21.9042C16.1641 21.9834 16.6401 22.0626 17.0962 22.0626C19.0812 22.0626 20.8227 20.8162 21.5002 18.9744C21.5144 18.9373 21.538 18.8727 21.5584 18.8073C21.5986 18.6783 21.6262 18.5506 21.6357 18.4163C21.6404 18.3511 21.6404 18.2859 21.6349 18.2205C21.5871 17.5034 21.1603 16.8779 20.5042 16.6007ZM12.8162 18.1369C13.1421 18.1369 13.443 18.0578 13.7271 17.9051C14.424 17.5438 15.7359 16.8343 16.5309 16.3898L20.0561 17.7136C20.2668 17.8031 20.4194 18.0267 20.4387 18.3316C20.4367 18.3607 20.4276 18.4025 20.4127 18.4503C20.4029 18.4817 20.3924 18.5107 20.369 18.5744C19.8681 19.9351 18.5724 20.8626 17.0962 20.8626C16.7636 20.8626 16.394 20.8011 16.183 20.7409C13.0134 20.0168 10.1513 18.4178 7.8703 16.1403C5.58942 13.8628 3.98815 11.0052 3.26966 7.86654C3.2705 7.86641 3.25801 7.80588 3.2434 7.73507L3.2434 7.73505L3.24339 7.735C3.22865 7.66356 3.21175 7.58167 3.20423 7.54086C3.1639 7.32213 3.14116 7.11982 3.14116 6.92927C3.14116 5.45605 4.06987 4.16249 5.44724 3.65728C5.47933 3.64642 5.51159 3.63605 5.55316 3.62476C5.6059 3.61043 5.65488 3.60041 5.72972 3.59393C5.98809 3.60281 6.2074 3.7496 6.30409 3.97779C6.30409 3.97779 7.60922 7.49428 7.59559 7.51925C7.23282 8.15294 6.48534 9.53083 6.09959 10.2869C5.95449 10.5557 5.87252 10.8722 5.87252 11.1873C5.87252 11.525 5.97342 11.8664 6.15068 12.1541C6.88718 13.4027 7.6995 14.4868 8.60609 15.3921C9.50566 16.3055 10.5869 17.1172 11.8572 17.8644C12.1417 18.0393 12.4675 18.1369 12.8162 18.1369ZM13.0934 3.72259C12.1835 4.64705 11.7894 5.93232 11.9401 7.26866C11.7699 7.37642 11.6121 7.50283 11.4672 7.64746C10.2574 8.87521 10.4184 10.9464 11.7711 12.2596C13.0982 13.5848 15.1724 13.7097 16.3757 12.4885C16.5124 12.352 16.6299 12.2071 16.7317 12.0503C18.0962 12.2074 19.4157 11.7863 20.3338 10.8374C22.0812 9.05636 21.8488 6.03454 19.87 4.07635C17.8739 2.11851 14.846 1.93612 13.0934 3.72259ZM15.2494 8.73517C15.8066 9.28175 16.066 10.0103 15.9908 10.6542C15.4166 10.4494 14.8645 10.1044 14.3955 9.64649C13.9123 9.164 13.5528 8.60523 13.3374 8.01416C13.9852 7.94607 14.6983 8.19454 15.2494 8.73517ZM17.1714 10.8806C17.3237 9.83969 16.9313 8.70407 16.0897 7.87854C15.2575 7.0621 14.1449 6.69047 13.1106 6.83296C13.0824 5.95726 13.3706 5.15159 13.9493 4.56366C15.2103 3.27828 17.4821 3.41513 19.0278 4.93118C20.5594 6.4468 20.7339 8.71613 19.4743 10C18.8902 10.6037 18.0647 10.9095 17.1714 10.8806ZM12.2598 8.5562C12.5396 9.2645 12.978 9.92683 13.5524 10.5004C14.1066 11.0415 14.7523 11.4592 15.4345 11.727C14.7049 12.3591 13.4616 12.2519 12.613 11.4045C11.7343 10.5514 11.6131 9.28981 12.2598 8.5562Z" fill="black" fill-opacity="0.9"/>
</svg>
